<?xml version="1.0" encoding="UTF-8"?>
<svg xmlns="http://www.w3.org/2000/svg" version="1.1" viewBox="0 0 522.4 593.3">
  <defs>
    <style>
      .cls-1, .cls-2 {
        fill: none;
      }

      .cls-2 {
        stroke: #e10600;
        stroke-miterlimit: 10;
      }

      .cls-3 {
        fill: #e10600;
      }
    </style>
  </defs>
  <!-- Generator: Adobe Illustrator 28.6.0, SVG Export Plug-In . SVG Version: 1.2.0 Build 709)  -->
  <g>
    <g id="Layer_1">
      <g>
        <path class="cls-1" d="M524.7,601.2H-2.3c0-203,0-406,0-609,175.7,0,351.3,0,527,0,0,203,0,406,0,609ZM522.3-5.4H.2v604h522.1V-5.4Z"/>
        <path class="cls-1" d="M522.3-5.4v604H.2V-5.4h522.1ZM453.5,428.3c3.9.7,7.2.4,9.5-3.5,2.1-3.6,1.2-6.6-1-9.7-3.2-4.4-2.2-8.7,0-13.2,4.1-8.9,8.3-17.8,11.9-26.9,2.2-5.6,5.4-9.1,11.6-10.2,2.4-.4,4.9-3.1,6.2-5.4,1.6-3,.4-6.3-2.6-8.3-5.1-3.5-5.9-8.3-5.2-14.1,1.3-9.7,2.2-19.5,3-29.3.4-5.6,2.2-10,7.7-12.3,3.3-1.4,4.7-4,4.5-7.6-.2-3.7-2-6.1-5.3-7.1-6-1.8-8.1-6.1-9.2-11.8-1.8-9.6-4-19.2-6.2-28.8-1.2-5.2-1.1-9.9,3.3-13.7,2.8-2.4,3.7-5.4,2.2-9-1.4-3.4-3.9-4.7-7.4-4.8-5.6,0-9.1-2.9-11.8-7.8-5-9-10.3-17.9-15.6-26.7-2.6-4.3-3.5-8.6-.9-13.2,1.9-3.4,2.1-6.5-.6-9.7-2.7-3.2-5.9-3.4-9.5-2.1-4.7,1.6-8.4,0-11.9-3.1-8.2-7.3-16.4-14.6-24.6-22-3.5-3.1-5.4-6.7-4.2-11.5.9-3.8,0-6.8-3.5-9.1-3.3-2.2-6.3-1.5-9.2.6-4.4,3.2-8.9,2.7-13.6.5-9.4-4.3-18.8-8.6-28.3-12.5-5-2-8.2-5.1-8.7-10.5-.4-3.8-2.3-6.1-5.9-7.2-3.9-1.2-6.5.6-8.6,3.4-3.1,4.3-7.3,5.4-12.3,4.8-10.4-1.2-20.8-2.3-31.3-3.2-5.3-.4-9.3-2.2-11.5-7.3-1.5-3.4-4.1-5.1-7.9-4.9-3.8.2-6.1,2.3-7.2,5.8-1.5,5.1-5.3,7.4-10.2,8.4-10.3,2.1-20.6,4.1-30.7,6.5-5.2,1.3-9.5.6-13.2-3.4-2.5-2.7-5.4-3.7-9-2.3-3.5,1.5-5.1,4.1-5,7.8.1,5-2.3,8.4-6.7,10.8-9.4,5.3-18.7,10.8-28,16.4-4.3,2.6-8.6,3.3-13.2.6-3.2-1.9-6.3-1.9-9.3.5-3.1,2.4-3.4,5.7-2.4,9,1.7,5.3-.1,9.3-3.7,13.1-7.1,7.7-14,15.6-20.9,23.5-3.2,3.6-6.9,5.8-11.9,4.7-3.8-.8-7-.2-9.1,3.3-2,3.2-1.7,6.3.6,9.3,3.1,4.2,2.9,8.5.8,13.1-4.5,9.7-8.7,19.4-12.9,29.2-2,4.6-5,7.3-10.2,8.4-2.6.5-5.5,3-6.9,5.3-1.8,3.1-.5,6.6,2.6,8.7,5.2,3.5,5.7,8.4,5.1,14.1-1.2,9.7-2.2,19.5-2.9,29.3-.4,5.4-2.3,9.7-7.4,12-3.3,1.4-5.2,3.8-5,7.3.1,3.9,2.1,6.5,6,7.7,5.2,1.6,7.5,5.5,8.5,10.7,1.9,10,4,19.9,6.4,29.8,1.3,5.3,1,9.9-3.3,13.7-2.8,2.5-3.7,5.3-2.3,9,1.5,3.6,4.2,5,7.8,5,5.2,0,8.6,2.7,11.1,7.1,5.2,9.1,10.4,18.2,15.8,27.2,2.6,4.3,3.6,8.5,1,13.1-1.9,3.3-2,6.5.5,9.7,2.5,3.1,5.7,3.3,9,2.2,5.3-1.7,9.3.1,13.1,3.7,7,6.6,14.1,13.2,21.6,19.3,4.6,3.8,7.6,7.7,6.4,14-.7,3.5.2,6.6,3.6,8.6,3.3,1.9,6.3,1.5,9.3-.7,4.2-3.1,8.5-2.8,13.2-.7,9.5,4.4,19.2,8.5,28.8,12.7,4.6,2,8,4.7,8.5,10.1.4,3.8,2.1,6.5,6.1,7.6,4.1,1.1,6.7-.9,9-3.9,3.1-4.1,7.2-4.9,12-4.3,10.3,1.2,20.5,2.3,30.8,3.1,5.4.4,9.3,2.2,12.1,7.3,1.3,2.3,4.6,4.3,7.3,4.8,3.6.7,6.3-1.8,7.4-5.4,1.7-5.8,5.9-7.9,11.4-8.9,9-1.6,18-3.3,26.8-5.7,6.5-1.8,11.8-2,16.9,3.3,1.6,1.6,5.8,2.2,8,1.3,2.2-.9,4.6-4.2,4.8-6.5.4-6.3,3.5-9.9,8.8-12.8,8.6-4.7,17.1-9.7,25.5-14.8,4.6-2.8,9.1-4,14-1.1,3.2,1.9,6.3,1.8,9.3-.7,3-2.5,3.4-5.6,2.2-9-1.6-4.8-.2-8.8,3.1-12.4,7.2-8.1,14.5-16,21.7-24.1,3.1-3.5,6.6-5.5,11.4-4.6Z"/>
        <path class="cls-3" d="M453.5,428.3c-4.8-.9-8.3,1.1-11.4,4.6-7.2,8.1-14.5,16.1-21.7,24.1-3.2,3.6-4.7,7.6-3.1,12.4,1.2,3.5.8,6.5-2.2,9-3,2.4-6.1,2.6-9.3.7-5-2.9-9.4-1.8-14,1.1-8.4,5.1-16.8,10.1-25.5,14.8-5.3,2.9-8.4,6.5-8.8,12.8-.2,2.4-2.6,5.6-4.8,6.5-2.2.9-6.4.3-8-1.3-5.1-5.2-10.5-5.1-16.9-3.3-8.8,2.4-17.8,4.1-26.8,5.7-5.5,1-9.7,3.1-11.4,8.9-1.1,3.6-3.8,6.1-7.4,5.4-2.7-.5-6-2.5-7.3-4.8-2.8-5-6.7-6.8-12.1-7.3-10.3-.8-20.6-2-30.8-3.1-4.8-.5-8.9.2-12,4.3-2.2,3-4.8,4.9-9,3.9-4-1.1-5.7-3.8-6.1-7.6-.5-5.4-3.9-8.1-8.5-10.1-9.6-4.1-19.3-8.3-28.8-12.7-4.6-2.1-8.9-2.4-13.2.7-3,2.2-6,2.7-9.3.7-3.4-2-4.3-5.1-3.6-8.6,1.2-6.3-1.8-10.2-6.4-14-7.5-6.1-14.5-12.7-21.6-19.3-3.8-3.6-7.8-5.4-13.1-3.7-3.4,1.1-6.5.9-9-2.2-2.6-3.2-2.4-6.4-.5-9.7,2.6-4.6,1.6-8.8-1-13.1-5.4-9-10.7-18.1-15.8-27.2-2.5-4.4-5.9-7.1-11.1-7.1-3.7,0-6.4-1.3-7.8-5-1.5-3.6-.5-6.5,2.3-9,4.3-3.8,4.6-8.4,3.3-13.7-2.4-9.9-4.5-19.8-6.4-29.8-1-5.2-3.3-9.1-8.5-10.7-3.9-1.2-5.9-3.8-6-7.7-.1-3.5,1.8-5.9,5-7.3,5.2-2.3,7-6.6,7.4-12,.8-9.8,1.8-19.6,2.9-29.3.7-5.7.1-10.6-5.1-14.1-3.1-2.1-4.5-5.6-2.6-8.7,1.4-2.4,4.3-4.8,6.9-5.3,5.2-1,8.2-3.7,10.2-8.4,4.2-9.8,8.4-19.5,12.9-29.2,2.2-4.7,2.3-9-.8-13.1-2.3-3-2.6-6-.6-9.3,2.2-3.5,5.4-4.2,9.1-3.3,5,1.1,8.7-1,11.9-4.7,6.9-7.9,13.9-15.8,20.9-23.5,3.5-3.8,5.4-7.8,3.7-13.1-1.1-3.3-.8-6.6,2.4-9,3-2.4,6.1-2.4,9.3-.5,4.5,2.7,8.8,2,13.2-.6,9.3-5.5,18.6-11,28-16.4,4.3-2.4,6.8-5.8,6.7-10.8,0-3.8,1.4-6.4,5-7.8,3.6-1.5,6.6-.4,9,2.3,3.7,4,7.9,4.7,13.2,3.4,10.2-2.5,20.5-4.4,30.7-6.5,4.9-1,8.7-3.3,10.2-8.4,1.1-3.6,3.4-5.6,7.2-5.8,3.8-.2,6.4,1.4,7.9,4.9,2.2,5,6.3,6.8,11.5,7.3,10.4.9,20.9,2,31.3,3.2,5,.6,9.2-.6,12.3-4.8,2.1-2.9,4.7-4.6,8.6-3.4,3.6,1.1,5.5,3.4,5.9,7.2.6,5.3,3.8,8.4,8.7,10.5,9.5,3.9,19,8.1,28.3,12.5,4.8,2.2,9.2,2.7,13.6-.5,2.9-2.1,5.9-2.8,9.2-.6,3.4,2.2,4.4,5.3,3.5,9.1-1.1,4.8.8,8.4,4.2,11.5,8.2,7.3,16.4,14.6,24.6,22,3.4,3.1,7.2,4.7,11.9,3.1,3.6-1.3,6.8-1.1,9.5,2.1,2.6,3.2,2.5,6.3.6,9.7-2.6,4.6-1.7,8.8.9,13.2,5.3,8.8,10.7,17.7,15.6,26.7,2.7,4.8,6.2,7.7,11.8,7.8,3.5,0,6.1,1.4,7.4,4.8,1.4,3.6.5,6.6-2.2,9-4.4,3.8-4.5,8.5-3.3,13.7,2.2,9.6,4.4,19.1,6.2,28.8,1.1,5.7,3.2,10,9.2,11.8,3.3,1,5.2,3.4,5.3,7.1.2,3.6-1.3,6.2-4.5,7.6-5.5,2.3-7.3,6.7-7.7,12.3-.8,9.8-1.7,19.6-3,29.3-.7,5.8.1,10.5,5.2,14.1,2.9,2,4.2,5.3,2.6,8.3-1.3,2.3-3.8,5-6.2,5.4-6.3,1.1-9.4,4.6-11.6,10.2-3.7,9.1-7.8,18-11.9,26.9-2.1,4.5-3.1,8.8,0,13.2,2.2,3.1,3.1,6.1,1,9.7-2.3,3.9-5.7,4.2-9.5,3.5ZM410.6,365.4c-.5-.2-1.1-.5-1.6-.7.2-2,.4-3.9.4-5.9.2-10.7-3.7-17.8-11.5-20.7-8.2-3.1-15.9-1.5-22.4,4.1-6.7,5.7-10.8,12.9-8.8,22,1.6,7.1,4.1,14,6,21.1,3.2,12.4,0,20.7-11.1,27-62.4,35.6-125.6,36.4-188.3,1.6-31.1-17.3-53.7-42.9-64.1-77.9-.4-1.4-1.4-2.7-2.1-4-.6.2-1.2.3-1.8.5.4,2.6.5,5.3,1.1,7.8,5.6,21.9,16.4,41,31.5,57.7,63.2,69.9,171.9,76,242.5,13.7,22.4-19.8,38.3-43.7,45.5-73,.5-2,.4-4.2.6-6.2-.5,0-1-.2-1.5-.3-4.9,11.1-9.7,22.2-14.6,33.3ZM340.9,266.9c.9-2.4,1.8-4.4,2.3-6.5,1.1-4.4,3.7-9.5-1-12.9-4.9-3.5-9.7-.3-13.7,2.6-9.2,6.6-16.6,15-21.2,25.4-2,4.6-3,9.8-3.4,14.9-.4,4.9,3.7,7.6,8.4,6.2,2.6-.8,5.6-2,7.4-3.9,5.9-6.1,11.5-12.3,16.7-18.9,2.2-2.8,4-4.6,7.7-3.3-1.4,5.6-3.3,11-3.9,16.5-.3,2.8,1,7.2,3.1,8.5,2,1.3,6.3.1,9-1.1,2.9-1.3,5.2-4,8-6.4,1.2,4.5,1.5,10.2,7.9,8.5,4.1-1.1,7.7-3.9,11.6-6,1.7,7,5.5,9,10.9,4.3,7.5-6.5,13.8-14.3,20.5-21.5.3-.4.2-1.1.6-3.1-7.3,5.8-10,15-18.5,17.3l-1.5-1.1c7.4-12.7,14.9-25.5,22.4-38.5-6.4-1.4-12.2,2.1-17.6-1.4-.7-.4-2.3.2-3.3.7-2.8,1.5-6.1,2.6-8,4.8-7.2,8.3-13.9,16.9-20.8,25.4-2.7,3.3-5.4,6.8-8.4,9.8-2.2,2.1-4.7.9-4.5-1.8.5-7.9,2.5-15.7,8.3-21.3,8.6-8.3,18.1-15.6,26.8-23.8,4.5-4.3,8.2-9.5,12.3-14.3-.5-.5-1-.9-1.5-1.4-10.9,11.9-21.1,24.5-35,33.1,2.1-4.9,4.5-9.4,7.2-13.8,8.7-14.3,18.5-27.7,31.2-38.7,2.1-1.8,4.7-3.1,7-4.6.4.4.8.7,1.3,1.1l-2.6,9c.4.2.9.4,1.3.6,1.1-2,2.6-4,3.1-6.1.5-2.1.6-5.5-.5-6.4-1.6-1.1-5-1.2-6.8-.3-4.8,2.6-9.5,5.5-13.6,9-17.9,15.5-31.5,34.3-41.9,55.4-1.5,3.1-3.3,4.8-7.4,4ZM258.6,222c-4.8.5-9.2,2.3-11.9.9-7.3-3.9-12.2,0-16.5,4.1-6.5,6.3-12.1,13.7-18.3,20.4-4.8,5.2-9.7,10.6-15.1,15.1-1.9,1.6-5.7,1.1-8.6,1.5-.3-2.8-1.6-5.9-.9-8.4,3.3-10.9,9.5-20.1,18.4-27.3,1.4-1.1,3.1-2,4.8-2.3.9-.2,2.1,1.1,3.1,1.7-.6.8-1.2,1.7-1.9,2.4-1.5,1.4-3.6,2.4-4.7,4.1-.7,1-.1,3,0,4.5,1.5-.2,3.8.2,4.5-.6,2-2.4,3.9-5.1,4.8-7.9,1.7-5.3-1.9-9.7-7.4-8.7-3.8.7-7.5,2.6-10.7,4.7-4,2.7-7.2,6.4-11,9.4-2.5,1.9-5.3,3.4-9,5.6,1.1-4.7,2.2-7.8,2.6-11.1.9-6.9-3.4-10.5-10.1-8.4-2.7.8-5.3,2.2-7.5,3.8-9.8,7.1-17.2,16.2-21.9,27.3-1.4,3.4-2.2,7.4-2.3,11.1-.1,6.6,5.2,9.8,11.3,7.1,2.7-1.2,5.6-2.7,7.5-4.8,5.7-6.2,10.8-13,16.3-19.3,1.5-1.7,3.6-2.8,5.5-4.2.4.4.7.9,1.1,1.3-.8,1.6-1.8,3.2-2.3,4.9-1.3,4.2-3.2,8.5-3.5,12.8-.6,7.6,5.6,12.2,12.8,9.8,3.6-1.2,6.8-3.4,10-5.5,2.7-1.7,5-3.9,6.6-5.1,1.3,3.6,1.7,8.8,4.1,10.1,6,3.1,10.2-2.6,14.9-5.4,2.7,6.4,4.5,7.7,9.2,5.3,10.2-5.2,16.7-14.1,22.6-23.5-6.9,3.6-9.9,12.2-17.7,14.7l-1.7-1.3c7.4-12.6,14.9-25.1,22.9-38.8ZM383,209.8c-7-3.8-13.3-8.1-20.2-10.7-5.1-1.9-11-2.2-16.5-2-5,.1-9.8,2.6-14.9-.3-1.5-.8-4.1-.5-5.8,0-5.5,1.9-11.2,3.6-16.1,6.5-22.7,13.4-38.7,32.9-49.2,56.8-2.8,6.5-4.1,14.2-4,21.3.1,11.2,8.4,17,19.4,14.7,3-.6,6.2-1.7,8.8-3.3,13.9-9.1,23.4-21.2,25-38.2.6-6.8-3.7-9.5-10.4-7.6-9.7,2.7-19.5,15.2-20.2,29.1,2.3-1.9,4.3-4,6.8-5.2,4.3-2.1,6.4-5.5,8.2-9.9,1.3-3.2,4-6,6.5-8.6.9-.9,3.6-1.5,4.5-.8,1.2.8,2,3,2,4.6-.1,10.5-13.3,28.7-23.3,32.5-7.2,2.7-13.3-1-13.8-8.7-.1-2.1.2-4.3.6-6.4,5.5-24,19.6-42.8,37.2-59,5.7-5.2,12.7-9,19.3-13.1,1.6-1,4-.8,6-1.1-2.8,3.6-5.9,5.8-8.8,8.3-6.5,5.7-11.7,12.4-13.6,21-1.2,5.5,2.7,9,7.9,6.9,3.1-1.3,6.2-3.3,8.6-5.8,7.5-7.8,12.5-16.8,12.6-29.3,4.6,1,9,1.1,12.6,2.9,6.8,3.4,13.2,7.7,19.7,11.7,2.5,1.6,4.4,1.6,6.3-1,1.2-1.7,2.9-3.1,4.8-5.1ZM243.5,296.4c-10.7-10.1-22.9-17.7-38.2-16-13.8,1.5-27.5,4.7-41.2,7-9.5,1.6-19,3.6-28.5,3.9-10.1.4-16.3-6.2-17.4-16.3-1-10.2,2.6-19.4,7.2-28.1,9-17.4,20.8-32.6,37.6-43.1,2.7-1.7,6.1-2.6,9.3-3.2,1.1-.2,2.5,1.5,3.8,2.3-.9,1.1-1.7,2.3-2.6,3.3-1.6,1.6-3.6,2.9-4.8,4.7-.7,1.1.2,3.1.3,4.6,1.7-.2,4.1.1,4.9-.9,2.2-2.8,4.4-5.9,5.4-9.3,1.3-4.7-2.4-9.1-7.3-9.1-3.6,0-7.3.4-10.8,1.5-12.1,3.8-21.7,11.5-30.5,20.2-13.5,13.4-23.5,28.9-26.3,48.2-2.9,19.8,9.9,33.2,29.6,30.2,13.3-2.1,26.3-5.8,39.6-7.9,12.7-2,25.5-2.5,34.6,9.3,8.9-9,22-7.1,35.4-1.5ZM431,200.5c-1.2.9-2.3,1.7-3.5,2.6-8.2,6-17.1,10.8-27.4,11-6.1.1-7.7,4.3-11,7.9,14.3,3.4,33.7-6.5,41.9-21.5ZM262,230.6c9.2.9,9.8.5,13-7.9-8.8-1.1-8.9-1-13,7.9Z"/>
        <path class="cls-2" d="M410.6,365.4c4.9-11.1,9.7-22.2,14.6-33.3.5,0,1,.2,1.5.3-.2,2.1-.1,4.2-.6,6.2-7.2,29.3-23.2,53.2-45.5,73-70.6,62.4-179.3,56.2-242.5-13.7-15.1-16.7-25.9-35.8-31.5-57.7-.6-2.5-.8-5.2-1.1-7.8.6-.2,1.2-.3,1.8-.5.7,1.3,1.6,2.6,2.1,4,10.5,35,33,60.6,64.1,77.9,62.7,34.8,125.8,34,188.3-1.6,11-6.3,14.3-14.6,11.1-27-1.8-7.1-4.4-14-6-21.1-2-9.1,2.1-16.3,8.8-22,6.5-5.6,14.2-7.1,22.4-4.1,7.8,2.9,11.8,10,11.5,20.7,0,2-.3,3.9-.4,5.9.5.2,1.1.5,1.6.7Z"/>
        <path class="cls-1" d="M340.9,266.9c4.1.8,5.9-.9,7.4-4,10.4-21.1,24-40,41.9-55.4,4.1-3.6,8.8-6.5,13.6-9,1.8-1,5.2-.9,6.8.3,1.2.8,1,4.3.5,6.4-.5,2.2-2,4.1-3.1,6.1-.4-.2-.9-.4-1.3-.6l2.6-9c-.4-.4-.8-.7-1.3-1.1-2.4,1.5-4.9,2.8-7,4.6-12.7,11.1-22.5,24.5-31.2,38.7-2.7,4.4-5.1,8.9-7.2,13.8,13.9-8.6,24.2-21.2,35-33.1.5.5,1,.9,1.5,1.4-4.1,4.8-7.7,10-12.3,14.3-8.7,8.2-18.2,15.5-26.8,23.8-5.8,5.6-7.7,13.4-8.3,21.3-.2,2.7,2.3,3.9,4.5,1.8,3.1-3,5.7-6.4,8.4-9.8,6.9-8.5,13.6-17.2,20.8-25.4,2-2.2,5.3-3.4,8-4.8,1-.5,2.6-1.1,3.3-.7,5.4,3.5,11.3,0,17.6,1.4-7.6,13-15,25.8-22.4,38.5l1.5,1.1c8.5-2.3,11.2-11.5,18.5-17.3-.3,2-.2,2.8-.6,3.1-6.7,7.3-13,15.1-20.5,21.5-5.4,4.7-9.2,2.7-10.9-4.3-3.8,2.1-7.5,4.9-11.6,6-6.4,1.7-6.7-4-7.9-8.5-2.9,2.4-5.1,5.1-8,6.4-2.7,1.3-7,2.4-9,1.1-2.1-1.3-3.4-5.7-3.1-8.5.6-5.5,2.5-11,3.9-16.5-3.6-1.3-5.4.5-7.7,3.3-5.2,6.6-10.9,12.9-16.7,18.9-1.9,1.9-4.8,3.1-7.4,3.9-4.7,1.4-8.8-1.3-8.4-6.2.4-5,1.3-10.3,3.4-14.9,4.6-10.4,12-18.8,21.2-25.4,4-2.9,8.8-6.1,13.7-2.6,4.7,3.4,2.1,8.5,1,12.9-.5,2.1-1.4,4.1-2.3,6.5ZM401.2,252.6c-1.1-.5-2.3-1.5-3-1.2-1.7.5-3.4,1.5-4.7,2.6-7.8,7.1-13.8,15.7-18.1,25.3-1,2.2-.5,5.1-.7,7.7,2.4-1.3,5.8-1.9,7.2-3.9,6.3-9.1,12.1-18.6,18-28,.4-.6.6-1.2,1.3-2.5ZM325.6,261.8c-3.3,6.7-6.6,12.9-9.4,19.3-.6,1.4,0,4.4,1.2,5.2,1.1.8,4,.5,5.3-.4,5.8-4,9.9-9.5,12.8-15.7-3.1-2.6-5.8-5-9.9-8.4ZM342.7,254.6c-1.4-1.3-3.6-4.1-4.4-3.8-2.7,1.1-5.8,3-7,5.4-1,1.9-.2,5.6,1.1,7.7,2.6,4,5.4,3.5,7.4-1,1-2.2,1.6-4.6,2.9-8.2Z"/>
        <path class="cls-1" d="M258.6,222c-8.1,13.7-15.5,26.3-22.9,38.8l1.7,1.3c7.7-2.5,10.7-11.1,17.7-14.7-6,9.4-12.4,18.3-22.6,23.5-4.7,2.4-6.5,1.1-9.2-5.3-4.7,2.8-9,8.6-14.9,5.4-2.4-1.3-2.7-6.5-4.1-10.1-1.5,1.2-3.9,3.4-6.6,5.1-3.2,2.1-6.4,4.3-10,5.5-7.2,2.4-13.4-2.3-12.8-9.8.3-4.4,2.2-8.6,3.5-12.8.5-1.7,1.5-3.3,2.3-4.9-.4-.4-.7-.9-1.1-1.3-1.8,1.4-4,2.5-5.5,4.2-5.5,6.4-10.7,13.1-16.3,19.3-1.9,2.1-4.8,3.5-7.5,4.8-6,2.8-11.4-.5-11.3-7.1,0-3.7.9-7.7,2.3-11.1,4.7-11.1,12.2-20.2,21.9-27.3,2.3-1.6,4.9-3,7.5-3.8,6.7-2.1,11,1.5,10.1,8.4-.4,3.2-1.5,6.4-2.6,11.1,3.7-2.2,6.5-3.7,9-5.6,3.8-3,7.1-6.7,11-9.4,3.2-2.2,7-4.1,10.7-4.7,5.6-1,9.1,3.3,7.4,8.7-.9,2.9-2.8,5.6-4.8,7.9-.7.9-2.9.5-4.5.6,0-1.5-.6-3.4,0-4.5,1.1-1.7,3.1-2.7,4.7-4.1.8-.7,1.3-1.6,1.9-2.4-1.1-.6-2.2-1.9-3.1-1.7-1.7.3-3.5,1.2-4.8,2.3-8.9,7.2-15.1,16.4-18.4,27.3-.8,2.5.5,5.6.9,8.4,2.9-.4,6.7.1,8.6-1.5,5.4-4.5,10.3-9.9,15.1-15.1,6.2-6.7,11.7-14.1,18.3-20.4,4.3-4.2,9.2-8,16.5-4.1,2.7,1.4,7.1-.4,11.9-.9ZM245.8,227.3l-1.4-1.6c-1.6.5-3.7.5-4.8,1.5-9.4,8.7-16.8,18.8-21.6,30.7-.4,1.1,0,3.4.8,3.9.9.6,3.1.2,3.9-.6,2.3-2.1,4.6-4.4,6.2-7.1,5.7-8.9,11.2-17.9,16.8-26.9ZM172.8,244.8c-4.5-3.1-7.6-5.2-11.6-8-3.1,6.3-6.5,12.3-9.1,18.6-.7,1.6.8,4.2,1.2,6.3,2-.5,4.6-.3,5.8-1.5,4.8-4.9,9.1-10.2,13.7-15.5ZM178.1,229.8c-.7-1.2-1.3-3.2-2.6-3.9-1.1-.6-3.3,0-4.5.7-1.7,1.2-3.3,2.8-4.3,4.6-1.9,3.5,0,6.9,4.1,8.6,4.3,1.8,4.6-1.7,5.6-4.2.7-1.7,1-3.5,1.6-6Z"/>
        <path class="cls-1" d="M383,209.8c-1.9,2-3.5,3.4-4.8,5.1-1.9,2.6-3.8,2.5-6.3,1-6.5-4-12.9-8.3-19.7-11.7-3.6-1.8-8.1-1.9-12.6-2.9-.1,12.5-5.1,21.6-12.6,29.3-2.3,2.4-5.4,4.5-8.6,5.8-5.2,2.2-9.1-1.4-7.9-6.9,1.9-8.6,7.1-15.3,13.6-21,2.9-2.5,6-4.7,8.8-8.3-2,.3-4.4.1-6,1.1-6.6,4.1-13.6,7.9-19.3,13.1-17.7,16.2-31.7,35-37.2,59-.5,2.1-.8,4.3-.6,6.4.5,7.7,6.5,11.4,13.8,8.7,9.9-3.8,23.1-21.9,23.3-32.5,0-1.6-.8-3.8-2-4.6-.9-.6-3.6-.1-4.5.8-2.5,2.6-5.2,5.4-6.5,8.6-1.7,4.4-3.8,7.8-8.2,9.9-2.4,1.2-4.4,3.4-6.8,5.2.8-13.9,10.5-26.4,20.2-29.1,6.6-1.8,11,.8,10.4,7.6-1.6,17-11.1,29.2-25,38.2-2.6,1.7-5.7,2.7-8.8,3.3-11,2.3-19.3-3.5-19.4-14.7,0-7.1,1.2-14.8,4-21.3,10.4-23.9,26.5-43.4,49.2-56.8,4.9-2.9,10.6-4.6,16.1-6.5,1.8-.6,4.4-.9,5.8,0,5.1,2.9,9.9.5,14.9.3,5.5-.2,11.4,0,16.5,2,6.9,2.6,13.1,6.9,20.2,10.7ZM335.8,203.4c-10.4,6.3-18.2,13.8-22.2,24.7-.6,1.5,0,3.9,1,5.3.4.6,3.1.3,4.5-.3,9.1-4.2,17.5-18.7,16.8-29.7Z"/>
        <path class="cls-1" d="M243.5,296.4c-13.4-5.7-26.5-7.5-35.4,1.5-9.2-11.8-21.9-11.3-34.6-9.3-13.3,2.1-26.3,5.8-39.6,7.9-19.7,3.1-32.5-10.4-29.6-30.2,2.9-19.3,12.8-34.8,26.3-48.2,8.8-8.7,18.4-16.4,30.5-20.2,3.4-1.1,7.2-1.5,10.8-1.5,4.9,0,8.6,4.4,7.3,9.1-.9,3.4-3.2,6.5-5.4,9.3-.8,1-3.2.6-4.9.9-.1-1.6-1-3.5-.3-4.6,1.1-1.9,3.2-3.1,4.8-4.7,1-1,1.8-2.2,2.6-3.3-1.3-.8-2.7-2.5-3.8-2.3-3.2.6-6.6,1.5-9.3,3.2-16.8,10.6-28.6,25.7-37.6,43.1-4.5,8.8-8.2,17.9-7.2,28.1,1,10.1,7.3,16.6,17.4,16.3,9.5-.3,19.1-2.4,28.5-3.9,13.8-2.3,27.4-5.5,41.2-7,15.3-1.6,27.5,5.9,38.2,16Z"/>
        <path class="cls-3" d="M431,200.5c-8.2,15-27.6,25-41.9,21.5,3.3-3.6,4.9-7.8,11-7.9,10.3-.2,19.2-5,27.4-11,1.2-.9,2.3-1.7,3.5-2.6Z"/>
        <path class="cls-1" d="M262,230.6c4.1-8.9,4.2-9,13-7.9-3.2,8.3-3.8,8.7-13,7.9Z"/>
        <path class="cls-3" d="M401.2,252.6c-.7,1.3-.9,2-1.3,2.5-5.9,9.4-11.7,18.9-18,28-1.4,2-4.7,2.7-7.2,3.9.2-2.6-.3-5.5.7-7.7,4.3-9.6,10.2-18.2,18.1-25.3,1.3-1.2,3-2.1,4.7-2.6.8-.2,1.9.7,3,1.2Z"/>
        <path class="cls-3" d="M325.6,261.8c4,3.5,6.8,5.8,9.9,8.4-2.9,6.3-7.1,11.7-12.8,15.7-1.3.9-4.2,1.2-5.3.4-1.1-.9-1.8-3.8-1.2-5.2,2.8-6.4,6.1-12.6,9.4-19.3Z"/>
        <path class="cls-3" d="M342.7,254.6c-1.3,3.6-1.9,6-2.9,8.2-2,4.5-4.8,5-7.4,1-1.3-2-2.1-5.7-1.1-7.7,1.2-2.4,4.3-4.3,7-5.4.8-.3,3,2.5,4.4,3.8Z"/>
        <path class="cls-3" d="M245.8,227.3c-5.6,9-11.1,18-16.8,26.9-1.7,2.6-3.9,5-6.2,7.1-.9.8-3.1,1.2-3.9.6-.8-.5-1.2-2.8-.8-3.9,4.8-11.9,12.2-22,21.6-30.7,1.1-1,3.2-1.1,4.8-1.5l1.4,1.6Z"/>
        <path class="cls-3" d="M172.8,244.8c-4.6,5.3-8.9,10.6-13.7,15.5-1.2,1.2-3.8,1-5.8,1.5-.5-2.1-1.9-4.6-1.2-6.3,2.7-6.3,6-12.4,9.1-18.6,4,2.8,7.1,4.9,11.6,8Z"/>
        <path class="cls-3" d="M178.1,229.8c-.7,2.5-1,4.3-1.6,6-1,2.5-1.3,6-5.6,4.2-4.1-1.8-6-5.2-4.1-8.6,1-1.8,2.6-3.5,4.3-4.6,1.2-.8,3.4-1.3,4.5-.7,1.3.7,1.9,2.7,2.6,3.9Z"/>
        <path class="cls-3" d="M335.8,203.4c.7,11-7.7,25.5-16.8,29.7-1.3.6-4.1.9-4.5.3-.9-1.5-1.5-3.8-1-5.3,4-10.9,11.8-18.5,22.2-24.7Z"/>
      </g>
    </g>
  </g>
</svg>