<?xml version="1.0" encoding="UTF-8"?>
<svg xmlns="http://www.w3.org/2000/svg" version="1.1" viewBox="0 0 800 800">
  <defs>
    <style>
      .cls-1 {
        fill: #afd4b9;
      }

      .cls-2 {
        fill: #cf4037;
      }

      .cls-3 {
        fill: #fff;
      }

      .cls-4 {
        fill: #65493c;
      }

      .cls-5 {
        fill: #e10600;
      }

      .cls-6 {
        fill: #62a24c;
      }
    </style>
  </defs>
  <!-- Generator: Adobe Illustrator 28.6.0, SVG Export Plug-In . SVG Version: 1.2.0 Build 709)  -->
  <g>
    <g id="Layer_1">
      <circle class="cls-5" cx="400" cy="400" r="400"/>
      <path class="cls-4" d="M484.6,602.8c0-22,10-69.7,12.9-106.8-1.3.3-2.5.4-3.8.4-8.6,0-15.5-7.1-15.4-19.6.2-17.8,11.3-41.5,25.5-59.6-.6-16.2-1.7-32.3-3.2-48.4-2.5,1.2-5.3,1.8-8,1.9-8.7,0-13.5-5.4-13.4-14.3.1-11.9,5.3-23.9,13.3-34.6-1.8-5.3-3.7-10.5-5.7-15.7-44.6,33.8-84.8,128.1-85.1,152.1-.1,13.4,10.1,25,21.2,25,16.7,0,55.2-33.1,55.7-72.4,0-5.4-2.3-9.8-7.9-9.8-11.1,0-19.3,16.1-21.8,33.9-12.8,6.2-16,8.9-28.9,20.5,4.4-33.9,23-66.1,49.2-66.1s15.8,6.3,15.7,17c-.5,48.2-46.3,91.1-74.2,91.1s-38.8-17-38.5-42.9c.7-67.5,61.6-137.8,109-162.8-6.5-16.9-13.6-34.7-18-47.8-7.6-22.9-12.9-41.9-18.5-81.8-2.4-17.3-1.2-29.3-1.2-29.3,0,0,7.6-5.6,7.6-23.7s-2.9-15.8-3.6-18.2c-4.4.8-29.7,3.8-43.3,3.4-13.6-.4-48.8-3.2-50.5-4.4,0,2.7-.7,4.5-1.2,8.4-1.1,7.6-3.2,22.1,6.4,34.9,0,0,1.2,35.3-7.6,70.6-8.8,35.3-34.5,88-39.7,108.7-.8,3.2-2,4.8,2.8,6.4s10,.8,10,9.2h-9.6s-.6.8-1.4,2.4c-4.8,8.4-8.9,17.3-12,26.5,10-11.9,20.3-20.5,30.6-20.5s9.4,1.8,15.6,5.4l3.2-4.5h18.7l-25.5,52.7c-.8,2.7-10.4,23.2-10.4,25.9s.7,3.6,3.1,3.6c3.9,0,7.9-4.5,24.5-29.5l3.9.9c-16,34.8-33.3,50.9-47.4,50.9s-12.5-4.5-12.4-15.2c-2.7,2.9-5.3,5.3-7.6,7.3.9,3.5,2.1,7,3.4,10.5,0,11.5-2,11.3-2.2,16.4,21.6,3.9,38,13.8,58.8,32.7-23.3-8.9-30.3-11.6-37.3-11.6-6.2,0-12.4,1.2-18.3,3.3,2,12.2,4.4,26.5,5.6,36.8,2.4,19.6,8,52.9,8,69s-11.2,64.6-16.9,81.4c-5.6,16.9-5.2,24.5-5.2,32.1s7.2,42.9,111.5,42.9,96.6-35.3,96.6-49.7c0-38.9-17.2-69.4-17.2-95.1h0Z"/>
      <path class="cls-3" d="M391.1,93.6c3.1,0,6.2.4,9.8.5,10,.8,17.2-.3,23.1-.6,10.7-.9,20.9-2.2,23.6-2.6,0,.3.8-.2.9-1,1.8-11,.4-24.5-6-28.9-6.4-4.4-27.3-6.8-41.3-6.8s-34.9,2.4-41.4,6.8-7.8,17.8-6,28.9c1.3.9,21.5,2.7,37.3,3.7h0Z"/>
      <path class="cls-2" d="M463.7,703c-20.8,4.5-30.9,4-30.9,4l-.4-2.8s8.4,1.6,26.9-6c3.3-1.4,5.9-3.8,4.8-17.9-1-12.6-5.9-62.6-10-80.4-.8-3,.3-6.8.3-6.8.4,1.1.9,2.7,1.4,4.7,3,10.7,7.7,39.2,9.5,57.9,2.3,23.9,3.3,40.1,3.3,40.1,0,0,20.7-6,22.1-8.4,0,0-6.1-56.2-19-87.5-2.6-6.5,1.1-8.7,5.3,5.7,4.2,14.4,16.7,57.3,19,84.6,0,0-11.1,8.2-32.2,12.8h0ZM345.6,574s-10.6-1.7-10.2-68.2c0,0,3-7.2,4.2,8.7,1.1,15.9,7.9,55.3,6.1,59.5h0ZM404.8,318.8c11,0,17.9,1.4,21.7,3.2-.5-15.2-4.4-73.1-4.4-73.1,4.6,22.8,7.2,66.3,7.8,77.1.2,3.1-4.6,3.3-4.6,3.3-5.3,0-35.3.2-48.9.2,0,0-2.5.2-2.7-.4-1.8-2,9.5-92.8,9.5-92.8-2.7,19.2-5.3,73.4-6,88.2,8.8-3.7,18.2-5.6,27.7-5.6h0ZM413.6,511.6c.3,0,2.9,0,3.9-.1,0,4.6-.7,10.4-1.1,14-.7,7.6,0,50.7,0,54.9-.1,9.5-2.7,15.5-2.7,2.6s-.7-54.7-.2-71.3ZM462.5,496.1s4-6,4.4,0c.4,6.1-3.8,46.9-6.8,67.4-3,20.5-6.4,14.2-6.4,14.2,4.5-9.5,8.7-81.5,8.7-81.5h0ZM478.9,571.4c2.6-11,7.9-53,7.9-53,.4,35.2-7.9,53-7.9,53ZM465.9,290.2c-2.7-10.3-6.6-22.3-11.2-36.9-2.1-6.5-3.4-22.7-3.4-22.7,0,0,2.7,13.3,4.5,18.2,1,2.5,6.9,19.1,12.1,37.1l-2,4.3h0ZM353.1,230s-1.4,16.2-3.4,22.7c-11.9,37.7-15.6,61.2-16.7,70.6,3.8-1.9,10.5-2.2,17.6-2.2,21.9,0,17.4,8.2,15.3,8.2h-33.3s-5.3,0-5.4-3.2c-.2-6.2,19.4-73,21.3-77.9s4.6-18.2,4.6-18.2h0ZM323.2,534.2c1.9,15.9.8,26.5.8,26.5,0,0-6.8-56.4-7.2-60.2,0,0,4.5,17.8,6.4,33.7h0ZM372.7,709.2c17.4,1.6,38.5.9,43.7-1.2,6.5-2.6,2.7-34.1,2.7-54.9s-3-42-3.4-45.8-4.8-11.1-2.1-.5c2.7,10.6,2.1,64.5,2.9,75.5.8,11,.4,21.2-6,22.4-5.1.9-22.3.6-36.6.5-4.8,0-7.5,3.6-1.1,4.2h0ZM355.9,705.9c-16.9-3.5-36.6-6.9-50.6-19.3-3.6-3.2-2.1-9.6-.6-15.3,1.5-5.7,16.9-68.7,17.7-76.3.8-7.6,7.1-4,5.7.6s-17.8,68.2-18.9,75.7c-1.1,7.6-.7,12.9,6.1,15.9,6.8,3,11.7,7.6,12.9,1.1,1.1-6.4,12.1-81.1,17.4-99.2,0,0,4.6-7.6-1.5,21.6-1.7,8.3-10.1,60.6-11,76.5-.5,9.4,11.6,10.6,23.6,15.2,2.7,1.1,7.3,5.2-.8,3.5h0Z"/>
      <path class="cls-3" d="M236.9,474.9c22.6,0,33.5,5.4,46.6,20.5,5.5-4.5,19.7-13.4,36.8-13.4s14,2.7,37.3,11.6c-28.6-25.9-48.8-34.9-85.5-34.9s-97.1,26.8-130.7,26.8-44.4-13.4-44.1-42.9c.5-42.9,60.1-151,99.9-151s5.5,2.7,5.4,8c-3.9,1.8-14.9,9.8-15,17,0,3.6,3.8,7.1,6.9,7.1,7.8,0,15.8-12.5,15.9-25,0-8.9-6.1-16.1-17-16.1-53.1,0-126.7,95.6-127.3,157.2-.5,42,23.6,55.4,56.4,55.4,42.2,0,71.3-20.5,114.2-20.5ZM512.5,282.1c8,0,12.7,2.7,21.4,8,14.4-5.4,21.6-8,31.1-8,17.5,0,37.3,10.7,58.5,28.6l-17.7,20.5c-37.1-29.5-50.5-33.9-70.4-33.9,0,4.5.7,8.1.7,10.7-.3,27.7-24.5,62.5-43.6,62.5s-13.5-5.4-13.4-14.3c.3-24.1,21.2-48.2,44.4-62.5h-6.4c-54.9,0-115.1,134.9-115.5,164.3-.1,13.4,10.1,25,21.2,25,16.7,0,55.2-33.1,55.7-72.4,0-5.4-2.3-9.8-7.9-9.8-11.1,0-19.3,16.1-21.8,33.9-12.8,6.2-16,8.9-28.9,20.5,4.4-33.9,23-66.1,49.2-66.1s15.8,6.3,15.7,17c-.5,48.2-46.3,91.1-74.2,91.1s-38.8-17-38.5-42.9c.9-83.9,94.9-172.3,140.2-172.3h0ZM394.4,362.2l11.1-21.3h-20.8l-10.3,21.3h20ZM728.6,284.2c-28.4,27.7-48.8,34.8-76.1,34.8l-15.8,22.4c6.2.9,8.6.9,12.5.9,33.6,0,69-26.8,79.5-58.1Z"/>
      <path class="cls-3" d="M272,335.6c7,0,13.2,6.3,13.1,15.2,0,9.8-8.1,23.2-14.3,23.2s-6.2-3.6-6.2-6.3c0-9.8,8.7-12.5,14.2-13.4,0-2.7,0-7.1-4.6-7.1-10.2,0-43.4,42.9-43.7,70.6,0,7.1,3,9.8,8.5,9.8,26.5,0,59.5-91.1,93.1-91.1s9.4,1.8,15.6,5.4l3.2-4.5h18.7l-25.5,52.7c-.8,2.7-10.4,23.2-10.4,25.9s.7,3.6,3.1,3.6c3.9,0,7.9-4.5,24.5-29.5l3.9.9c-16,34.8-33.3,50.9-47.4,50.9s-12.5-4.5-12.4-15.2c-10.3,10.7-17.3,15.2-25.1,15.2-12.5,0-12.4-11.6-12.2-27.7-16.6,20.5-27.6,29.5-41.7,29.5s-21-8.9-20.8-23.2c.1-11.6,2.5-17,12.1-39.3l-14.1,3.6c-19.9,36.6-37.3,57.2-55.3,57.2s-15.5-6.3-15.4-19.6c.4-37.5,39.9-85.7,64.9-85.7s14.7,8,14.7,17c0,5.4-2.5,15.2-5.7,24.1,31.4-8,40.3-42,65.3-42h0Z"/>
      <path class="cls-2" d="M178.7,369.5c-11.9,16.1-20.7,33.9-20.7,43.8,0,5.4,3,8.9,7.7,8.9,9.4,0,16.5-13.4,30.9-38.4-8.6-3.6-10.9-5.4-17.8-14.3h0ZM200.8,347.2c-6.2,0-14.1,6.3-14.2,13.4,0,8.9,7.7,13.4,15.4,16.1,4-9.8,4.8-12.5,4.9-17.9.1-7.2-2.2-11.6-6.1-11.6Z"/>
      <path class="cls-3" d="M662.5,473.1c5.5,0,14.9-11.6,26.1-29.5l4.7-.9c-14.4,31.3-32.6,53.6-49,53.6s-10.1-8-9.9-18.7c-9.5,11.6-16.6,17.9-26,17.9s-12.4-9.8-12.2-24.1c-12.7,17-22.9,25-33.1,25s-14.8-6.3-14.7-18.7c.1-11.6,2.5-18.8,8.2-39.3h-9.4c-18.3,35.7-37.3,58.1-53.7,58.1s-15.5-7.1-15.4-19.6c.4-33,38.4-86.6,64.2-86.6s14,8,13.9,17.9c0,7.1-1.7,12.5-5.7,23.2h9.4c29.7-76.8,82.7-148.3,114-148.3s10.9,5.4,10.8,12.5c0,4.5-.9,6.3-4,12.5l-8.9,2.8c3.2-9.8,5.9-13.6,5.9-16.3,0-1.8-1.5-3.6-3.1-3.6-12.5,0-52,49.1-84.9,125,22-17,44.9-41.1,60.8-67.9l7.8-.9c-20.7,37.5-38.1,55.4-75,82.2-4,13.4-8.2,31.3-8.2,37.5,0,3.6,1.5,8,5.4,8,14.8,0,44.6-85.7,82.1-85.7s7.8,1.8,13.2,5.4l5.5-5.4h17.2l-30.3,62.5c-.8,1.8-8,17.9-8,18.8,0,1.8.8,2.7,2.3,2.7h0Z"/>
      <path class="cls-2" d="M665.7,400c-10.2,0-44.2,42-44.4,67.9,0,4.5,1.5,6.2,4.6,6.2s8.6-2.7,18.2-19.6l21.5-40.2c2.4-4.5,4-8.9,4-11.6,0-1.8-.7-2.7-3.9-2.7h0ZM540.7,399.9c-6.2,0-12.6,6.3-12.6,14.3-.1,10.7,6.9,14.3,14.7,17,4-9.8,5.6-13.4,5.7-19.6,0-8.1-1.4-11.6-7.7-11.6h0ZM521.8,423.2c-10.3,9.8-19,24.1-19.1,39.3,0,7.1,3.8,12.5,8.5,12.5s18.9-14.3,30-37.5c-8.6-2.7-15.6-6.2-19.4-14.3h0Z"/>
      <path class="cls-3" d="M152.8,122.9c12.9-11.4,57.8-46.8,91.9-59.6,8.1-3,16.2,0,2,8.1-14.2,8.1-77.8,49.5-94,64.6-16.2,15.2-18.2,3,0-13.1h0ZM644.7,663.7c-8.1,7.1-65.6,49.5-77.8,54.6-12.1,5-6.5,11.9,5.1,8.1,18.2-6.1,60.8-35,80.8-58.6,11.1-13.1-8.1-4-8.1-4h0Z"/>
      <path class="cls-6" d="M487.8,703s8-4.8,9.6-6.4c0,0,4.7,8.6-2.8,23.6-5.2,10.4-12.4,8.8-12.4,8.8,0,0,1.6-8.8,0-9.6,0,0,6-8,5.6-16.4ZM461.5,712.6c-3.2-1.2-5.9-.3-7.4-.4-14.8-1.3-18.5,5.2-58.2,5.2s-67.9-4.3-84.6-17.6c-4-3.2-13.2-7.2-13.2.8s2,18,14.4,24c12.5,6,37.7,17.3,91.1,17.3s63.8-7.6,63.8-13.6-7.2-7.2-7.2-2-2,6-4.8,3.6-7.6-7.2-11.6-6.8c-4,.4-14.4.4-14.4.4,0,0,12.5-2.4,15.3-3.2,2.8-.8,12,.4,17-2.9,3.6-2.4,14.7-4.7,18.7-5.9s4.8-5.2-.4-4.4c-4,.6-15.1,2.8-18.3,5.6h0Z"/>
      <path class="cls-2" d="M404.8,225.1s20.9-1.2,29.9-4c0,0,4,3.4-4.8,4.6-8.8,1.2-21.1,1.2-25.1-.6Z"/>
      <path class="cls-6" d="M443.3,123.5c4.8,0,4,4.8,0,4.8-6.2,0-5.4-4.8,0-4.8ZM436.4,137.2c0-4,4.3-8.4,4.4-.4.2,19.9,4.2,45.6,5.2,55.7,1.2,11.6,5.6,22.9,3.6,23.3-2,.4-5.6,0-7.6-10.4-2-10.4-5.6-27.7-5.6-68.2h0Z"/>
      <path d="M357.8,70.1c-.6-.2-1.3.2-1.5.8-1.5,5.5-1.6,13.2-1.6,13.6,0,.7.5,1.2,1.2,1.2,0,0,0,0,0,0,.6,0,1.2-.5,1.2-1.2s0-7.7,1.5-12.9c.1-.6-.2-1.3-.9-1.5ZM368.7,71.6c-.6-.2-1.3.2-1.5.8,0,0,0,0,0,0-1.2,4.2-1.2,13.5-1.2,13.9,0,.6.5,1.2,1.2,1.2.7,0,1.2-.5,1.2-1.2,0,0,0,0,0,0,0,0,0-9.4,1.1-13.3.2-.6-.2-1.3-.8-1.4,0,0,0,0,0,0ZM379.7,73.1c-.6-.2-1.3.2-1.5.8-.8,2.8-.8,13.1-.8,14.3s.5,1.2,1.2,1.2c.7,0,1.2-.5,1.2-1.2,0,0,0,0,0,0,0-3.1.1-11.6.7-13.6.2-.6-.2-1.3-.8-1.5h0ZM390.7,73.4c-.6-.2-1.3.2-1.5.8-.4,1.4-.4,11.6-.4,14.7s.5,1.2,1.2,1.2,1.2-.5,1.2-1.2c0-6.2.1-13.2.3-14.1h0c.2-.6-.2-1.3-.8-1.5,0,0,0,0,0,0ZM446.4,70.9c-.2-.6-.8-1-1.5-.8-.6.2-1,.8-.8,1.5,0,0,0,0,0,0,1.4,5.2,1.5,12.8,1.5,12.9,0,.7.5,1.2,1.2,1.2,0,0,0,0,0,0,.6,0,1.2-.5,1.2-1.2,0-.3,0-8-1.6-13.6ZM433.9,71.6c-.6.2-1,.8-.8,1.5,1.1,3.9,1.1,13.2,1.1,13.3,0,.6.5,1.2,1.2,1.2.7,0,1.2-.5,1.2-1.2,0,0,0,0,0,0,0-.4,0-9.8-1.2-13.9-.2-.6-.8-1-1.4-.9,0,0,0,0,0,0ZM423,73.1c-.6.2-1,.8-.8,1.5,0,0,0,0,0,0,.6,2.1.7,10.6.7,13.6s.5,1.2,1.2,1.2,1.2-.5,1.2-1.2c0-1.2,0-11.5-.8-14.3-.2-.6-.9-1-1.5-.8h0ZM412,73.4c-.6.2-1,.8-.8,1.5h0c.2.8.3,7.8.3,14s.5,1.2,1.2,1.2c.7,0,1.2-.5,1.2-1.2,0,0,0,0,0,0,0-3.1,0-13.3-.4-14.7-.2-.6-.8-1-1.5-.8,0,0,0,0,0,0ZM401.3,73.7c-.7,0-1.2.5-1.2,1.2,0,0,0,0,0,0v14.7c0,.7.5,1.2,1.2,1.2,0,0,0,0,0,0,.7,0,1.2-.5,1.2-1.2h0v-14.7c0-.7-.5-1.2-1.2-1.2,0,0,0,0,0,0h0Z"/>
      <path class="cls-3" d="M702.7,457.7c-10.1-.1-18.4,8-18.5,18.1,0,0,0,.2,0,.3,0,10.7,8.5,18.5,18.6,18.5,10.1,0,18.4-8,18.5-18.1,0-.1,0-.2,0-.3,0-10.1-8.1-18.3-18.2-18.4,0,0-.2,0-.2,0Z"/>
      <path class="cls-2" d="M702.7,491.5c-8.4,0-14.9-6.5-14.9-15.4s6.6-14.8,14.8-14.8,14.8,6.6,14.8,14.8-6.5,15.4-14.8,15.4h0ZM314.9,328h9.6c0-8.4-5.2-7.6-10-9.2-2.4-.8-3.3-1.6-3.5-2.5-1.5,6,1.8,10.6,3.4,12.5.3-.5.5-.7.5-.7h0Z"/>
      <path class="cls-6" d="M427,128.5c-4.2,0-19.6-1.2-23.1-1.2s-1.8-8.4,0-8.4h7.6c5.2,0,7-4.8,7-7.4v-14.7c-5,.3-9.9.4-13.8.3-12.5-.5-24.9-1.4-37.4-2.6-.5,1.1-1.5,3.6-3.2,9.2-3.2,11,3.6,20.5-1.4,16.6-5-3.8-2.8-17.4-2.2-19.8.6-2.4,1-6.4-1.6-6.4s-5.4,5.2-5.4,17.6,7.2,18.6,7.2,18.6c0,0,.8.6,1,8.8.2,8.2-2.4,44.5-4.6,54.7-2.2,10.2-5.8,22.9-5.2,24.9h0c-.5-.8.5-1.4,4.3-1.9-.5-1.6-.4-3.2.3-4.8,1.2-3.2,3.4-14.6,5-22,1.6-7.4,2.2-16.6,2.8-23.9.6-7.2,1.6-22.3,1.6-27.5s4.6-4,4.6-.2-.2,13.6-.4,24.1c-.2,10.4-3.8,38.3-4.2,41.7s-.6,7.9.4,7.9h5.5c1.8,0,2.9.9,2.9,2.9v24.3l6,.3.8-6.1c1.4,0,1.6-6.4,1.6-6.4h10.4v-11.6c0-2.4,1.6-3.6,3-3.6s14.8-.4,14.8-.4v-49.9c0-11.5-4.1-15.2-6.3-15.9-2.2-.8-2.3-.9-2.3-2.3v-4.6c0-1-1.4-2.8,1.6-2.8s14.6-1.4,21.6-1.4c7,0,5-6,.8-6h0Z"/>
      <path class="cls-2" d="M366.5,223.4s-28.1-5.6-6-6.8c3.6-.2,5.2.2,5.2.2,0,0-12.6,1.6-7.2,1.8,5.4.2,7.4.6,7.4.6,0,0-9.2.8-5.6,1.6,1.8.4,6.2,2.6,6.2,2.6h0Z"/>
      <path class="cls-1" d="M383.9,104.3c0-6,10.4-8,10.4,0v7.2c0,4.9-10.2,6.1-10.2-.2,0-4.8-.2-7-.2-7ZM385.9,133.7c-3.4,0-6.8,1.8-6.8,5s4,2.2,4,9.8-1.4,59.2-1.4,65.4,6.6,7.2,6.6,0,2.4-64.2,2.4-67.2,3.8-4.2,6.2-4.2,4.6-8.8-.4-8.8h-10.6ZM376.3,117.7c-7.6-2-8.4,6.8-1.6,8.4,6.8,1.6,13.6.8,17.3.8s6.9-8.4-.8-8.4c-9.2,0-14.8-.8-14.8-.8h0Z"/>
      <path class="cls-6" d="M427.2,96.2l5.8-.4v10c0,4-5.4,4.8-5.4,0s-.4-9.6-.4-9.6Z"/>
      <path class="cls-2" d="M494.9,329.7c1.9,7.9,3.6,19.6,4.9,31.5,16.2-7.2,27.4-43.6,27.6-61.2-12.7,7.6-23.8,17.8-32.5,29.8Z"/>
      <path class="cls-4" d="M299.1,421.3c3.9,0,9.4-6.3,15.8-17.9l19.9-38.4q5.6-10.7,5.6-13.4c0-2.7-.7-4.5-3.8-4.5-10.2,0-43.4,47.3-43.7,67,0,3.6,2.3,7.1,6.2,7.1Z"/>
      <path class="cls-3" d="M711.1,471.6c0-4.2-2.5-6-7.5-6h-8v21.2h3.2v-9.2h3.7l5.5,9.2h3.6l-6-9.3c3.1-.4,5.5-2.1,5.5-5.9h0Z"/>
      <path class="cls-2" d="M698.9,474.8v-6.5h4.4c2.2,0,4.6.5,4.6,3.1s-2.4,3.5-5.1,3.5h-3.8,0Z"/>
      <path class="cls-4" d="M494.1,362.5c1.9,0,3.8-.5,5.6-1.3-1-10.6-2.6-21.1-4.9-31.5-5.5,7.9-9.3,16.4-9.4,24.7,0,5.4,3.9,8.1,8.7,8.1h0Z"/>
      <path class="cls-1" d="M372.2,728c3.1-9.2-19.9-12.1-22.7-5.2-2.3,5.7,20.5,12,22.7,5.2Z"/>
    </g>
  </g>
</svg>