<?xml version="1.0" encoding="UTF-8"?>
<svg xmlns="http://www.w3.org/2000/svg" version="1.1" viewBox="0 0 130 156">
  <defs>
    <style>
      .cls-1 {
        fill: #006b36;
      }

      .cls-2 {
        fill: #fff;
      }
    </style>
  </defs>
  <!-- Generator: Adobe Illustrator 28.6.0, SVG Export Plug-In . SVG Version: 1.2.0 Build 709)  -->
  <g>
    <g id="Layer_2">
      <g id="assets">
        <g id="mobot-header-logo">
          <path id="container" class="cls-2" d="M0,0h130v156H0V0Z"/>
          <path id="mobot-logo" class="cls-1" d="M97.6,118.9c0-2.5,1.9-4.4,4.4-4.4s4.3,1.9,4.3,4.4-1.9,4.4-4.3,4.4-4.4-1.9-4.4-4.4ZM101.9,124.3c2.9,0,5.3-2.2,5.3-5.3s-2.5-5.3-5.3-5.3-5.4,2.3-5.4,5.3,2.5,5.3,5.4,5.3ZM100.8,119.4h1.1l1.6,2.6h1l-1.7-2.7c.9-.1,1.6-.6,1.6-1.7s-.7-1.7-2.2-1.7h-2.3v6.1h.9v-2.6h0ZM100.8,118.6v-1.9h1.3c.6,0,1.3.1,1.3.9s-.7,1-1.5,1h-1.1ZM53.5,30.4v38.3l-3-3V30.4c0,0-9.5,9.5-9.5,9.5v16.3l-16.4-16.4h-6.7v6.8l15.6,15.6h-15.5l-9.5,9.5h34.5l10.5,10.5v8.3l-.2-.2-2.8-2.8-7.6-7.6h-13.3l23.9,23.9,2.8,2.8,6.7,6.7V39.9l-9.5-9.5h0ZM76.1,90.5v-8.2l10.7-10.7h34.7l-9.5-9.5h-15.7l15.6-15.6v-6.7h-6.7l-16.6,16.6v-16.5l-9.5-9.5v35.5l-3,3V30.4l-9.5,9.5v73.4h0l6.7-6.7,2.8-2.8,23.9-23.9h-13.3l-10.6,10.6h0ZM27.1,79.9h-9.5c.8,24.8,20.7,44.8,45.4,45.8v-9.5c-19.5-1-35.1-16.7-35.9-36.2ZM102.7,79.9c-.8,19.6-16.5,35.4-36.1,36.3v9.5c24.8-.9,44.8-20.9,45.6-45.8,0,0-9.5,0-9.5,0Z"/>
        </g>
      </g>
    </g>
  </g>
</svg>