<?xml version="1.0" encoding="UTF-8"?>
<svg xmlns="http://www.w3.org/2000/svg" version="1.1" viewBox="0 0 200 149.7">
  <defs>
    <style>
      .cls-1 {
        fill: #f8bb1f;
      }
    </style>
  </defs>
  <!-- Generator: Adobe Illustrator 28.6.0, SVG Export Plug-In . SVG Version: 1.2.0 Build 709)  -->
  <g>
    <g id="Layer_1">
      <path class="cls-1" d="M95.5,64.2c-5.3-7.4-10.6-14.8-15.9-22.2-.1-.3-.3-.6-.4-.8-.5-.8-1.1-1.5-1.8-2.2l-1.2-1.6h0c-.2-.4-.4-.7-.7-1h0c-.1-.5-.3-.9-.6-1.2-.2-.3-.3-.5-.5-.8l-1.9-2.6v-.4c0-.4-.3-.8-.6-1.1h-.4l-.5-.7v-.3c0,0,0-.2,0-.3,0-.2-.2-.3-.3-.5,0-.1-.2-.2-.4-.2h-.3l-1-1.4v-.5c-.2-.3-.4-.6-.6-.9l-.6-.2-.8-1.1c0-.2.2-.5.1-.6l-.5-1c-.2-.3-.5-.4-.8-.4h-.2l-3-4.3v-.4c-.1-.2-.2-.3-.4-.4l-.6-.5-1.5-2.2c0-.1-.2-.2-.4-.2-.2,0-.3,0-.4.1l-1.4,1c-.2.2-.3.5-.1.8l.9,1.3v.6c.2.2.3.4.5.5l.6.3,2.7,3.6v.4c0,0,0,.2,0,.3.1.2.2.5.4.7h.2c0,.1.7.5.7.5l1.3,1.7.3.5h0c0,0,.5.6.5.6l.9,1.2v.3c0,.2,0,.3.1.5.1.2.3.4.4.6.1.1.3.2.4.2h.2l.6.7v.3c0,.3.2.5.4.7h.3l.9,1.2v.6c.2.3.4.6.7.8h.4l.8,1.2v.2c0,.2.2.4.3.6.2.2.4.4.7.6l.7.9c0,.3.2.6.5.8h.1l3.1,4.2,2.4,3.2c.3.7.7,1.3,1.3,1.7,2.2,2.9,12.9,17.1,13.2,17.5.1.2.4.4.7.4.2,0,.3,0,.4-.2.3-.3.3-.9,0-1.2M200,96h-8.5c-2.4,0-4.8.2-5.6,2.1,0,.2-.2.7-.2.7l2.5,2.4,1.2-2.8h4.9l-1.2,1.3v7.6c-1.5.5-3,.8-4.5.8-5.4-.2-9.6-4.8-9.4-10.3,0-5.1,3.3-10.4,9.4-10.4,2.3,0,4.6.7,6.4,2.2.8.8,1.6,1.7,2.2,2.7l1.9-6.4-2.9,1.2c-2.4-1.1-5-1.8-7.7-1.9-8.4,0-14.3,5.3-14.3,12.9,0,3.4,1.2,6.7,3.6,9.2,2.9,3.1,7,3.5,10.6,3.5,3.2,0,6.3-.8,9.2-2.2v-7.2l2.2-2.5-2-.3,2.2-2.5ZM30.6,85.7l1.5,1.6-4.8,14.1-5.4-14.1,1.5-1.6h-8.1l1.5,1.6-4.5,15.1-2.6-6.1,1.9.8-3.6-6.8,2.2.9-2.6-5.5H0l4.5,7.8-2.5-1,5.7,8.8-2.4-1,6.3,11.9,1.2-1.7,5.9-18.9,7.7,20.2,1.2-1.7,7.6-22.8,1.5-1.6h-6.1ZM132,96c0-2.9-1-7.8-5.9-7.8h-3.7v15.1l-1.2,1.2h4.5c4.6,0,6.3-4.6,6.3-8.5M136.9,96c0,5.9-3.6,10.9-9.1,10.9h-11.3l1.3-1.5v-18.1l-1.5-1.5h11c7.4,0,9.6,5.3,9.6,10.3M84.3,101.1l-3.8-10.3-4.5,10.3h8.3ZM93.3,110.2h-7.8l1.5-1.6-1.4-4,1.1-1.1h-11.8l-2.2,5.1,1.5,1.6h-6.3l1.5-1.6,2.5-5.6-2-1.9h2.8l6.1-13.8-1.4-1.6h8.2l-1.5,1.6,7.8,21.3,1.5,1.6ZM171.1,87.3l1.5-1.6h-5.9l1.5,1.6v16.4l-12.8-18h-5.9l1.5,1.6v21.3l-1.5,1.6h5.9l-1.5-1.6v-17l13.2,18.6h5.6l-1.5-1.6v-21.3ZM104.1,97.1c2.2,0,4.1-2.5,4.1-4.8.1-2.2-1.6-4.1-3.8-4.2,0,0-.2,0-.2,0h-3.4v8.9h3.4ZM132,109.3s-.9,7-9.6,7c-5,.1-9.7-2-12.9-5.8-2.6-3.2-4.5-7-5.6-10.9h-3.2v9l1.5,1.6h-7.5l1.5-1.6v-21.3l-1.5-1.6h11c1.1,0,2.2.3,3.1.7,2.3,1,3.9,3.2,3.9,5.8,0,5-4.9,6.8-4.9,6.8l1.8.6c1,3.2,2.4,6.3,4.2,9.1,2.1,3.3,5.7,5.3,9.6,5.2,3.7,0,5.5-1.7,5.9-2.6l-1-1-2.9,1.7,1.4-2.7h5.1ZM66.4,89v-3.3h-17l-.9,5.9,3.2-3.4h9.9l-12.9,18.6v3.4h17.7l.6-5.4-2.9,2.9h-10.6l8-11.7,3.4-2.3-1.2-.7,4.5-2.9-2-1.2ZM146.9,85.7h-7.5l1.5,1.6v21.3l-1.5,1.6h7.5l-1.5-1.6v-21.3l1.5-1.6ZM45.7,85.7h-7.5l1.5,1.6v21.3l-1.5,1.6h7.5l-1.5-1.6v-21.3l1.5-1.6ZM61.5,118.4l1.4,1.6-6.2,17.8-6.1-17.9,1.7-1.5h-9.1l1.5,1.6-4.9,17.3-6.5-17.3,1.3-1.6h-8.9l1.6,1.6,11.2,29.7,1.6-1.7,6.3-23.2,8.5,24.8,1.5-1.6c2.1-5.9,9.6-28.1,9.6-28.1l1.8-1.6h-6.4ZM147.2,16.6l-3.5-2.5c-.2-.2-.5-.2-.7,0-.2.2-.3.4-.2.7v.5c.1.4,0,.7-.2,1.1l-8.3,12.2h0c0,0-.2.8-.2.8l-.2.2-.9.4c-.3.1-.4.4-.4.6,0,.1,0,.3,0,.4v.2c-7.1,9.9-23.7,33.1-24,33.4-.3.3-.7,1-.2,1.3.5.3,1.1-.5,1.1-.5,5.9-7.5,21.3-28.2,24.9-33h.2c.1.1.3.1.4,0,.3,0,.4-.3.5-.6v-1c.1,0,.2-.2.2-.2l.6-.4h0l8.8-11.8c.2-.3.6-.5.9-.6h.5c.3-.1.5-.3.6-.5,0-.2,0-.5-.2-.6M105.7,64.3h.1c.1.1.3.1.5,0,.3-.2.5-.5.6-.9.2-.7.5-1.6.8-2.7.2-.8.5-1.7.7-2.5.7-2.2,2.6-7.4,3.6-10.2.4-1,.6-1.7.7-1.8v-.4c.2-.5.3-.9.5-1.4,0-.2.2-.4.3-.8.6-1.8,1.9-5.6,2.6-7.9,0-.2.1-.5.2-.7.1-.2.2-.5.3-.8,0-.2.1-.4.2-.6.1-.3.2-.7.3-1,0-.1,0-.3.2-.4.1-.3.3-.7.6-1.5s1.1-3.3,1.6-4.8c.3-.8.5-1.4.5-1.5,0,0,.1-.3.2-.6.2-.5.5-1.2,1-2.2.7-1.7,2-5.1,3-7.6l1-2.4c.5-1.2,1-2.5,1.4-3.7.3-1.2-.3-2.5-1.5-3.1-.6-.2-.8.2-.9.4h0c-.5,1.5-1,3-1.3,4.5-.2.7-.3,1.5-.6,2.2-1.3,3.7-1.8,5.3-2.4,7.2-.2.7-.5,1.5-.8,2.4-.5,1.5-1.4,4.2-2.4,7.1-1.2,3.7-2.5,7.6-3,9-.5,1.5-2.8,8.4-4.4,13.4-.6,1.9-1.3,3.9-1.9,5.8-.3,1-1.5,5-1.8,6.1-.2.7-.3,1.2,0,1.4M43.2,35.6c.6.1,1.2.4,1.6.8.5.4,1.6.8,2,1.2.5.4,1.2.8,1.8,1.1.4.1.8.4,1.1.7.2.3.9.4.9.4.2.2.4.4.6.6.8.4,1.5.8,2.2,1.3.5.5,2,1.2,3.1,2.1.7.6,1.5,1.2,2.3,1.6.7.4,1.4,1,2.1,1.5.5.5,1.4,1,2,1.5.8.6,1.7,1.1,2.5,1.6.9.6,2,1.5,2.7,2,.7.4,2.3,1.4,2.9,1.9.6.5,2.5,1.9,3.6,2.5,1,.6,2,1.3,2.9,2.1.9.7,3.5,2.4,5.8,3.9s7.4,5.1,8,5.5c.7.5,1,.1,1.1,0,0-.1.1-.4-.4-.9-.5-.5-3.2-2.4-4.3-3.2-1.1-.8-4.4-3.3-5.2-3.9l-7.8-5.6c-1.3-.9-3-2.2-4-2.8-1.1-.8-2.2-1.5-3.3-2.2-1.1-.7-1.8-1.5-3.3-2.5-1.5-1-2.2-1.8-3.6-2.5-.9-.5-1.8-1.2-2.6-1.9-.8-.5-1.6-1.1-2.4-1.7-.5-.5-1.1-.9-1.7-1.1-.1-.3-1.2-1-1.5-1.2-.4-.2-2.7-2.7-3.8-3.5-.8-.5-1.6-1-2.4-1.5-.4-.3-.7-.9-1.8-2-1-.8-2.4-.6-3.2.3,0,0,0,0,0,0-.6.7-.7,1.7-.3,2.5.3,1,1.6,1.3,2.2,1.4M156.9,33.9l-4.8,4c-.2,0-.4,0-.5.2-.1.1-.2.3-.3.5-1.5,1.1-35.1,26-39.2,29.1-.2.2-.3.5-.1.8.2.3.5.4.8.2,0,0,0,0,0,0,4.5-3.1,37.9-26.9,39.9-28.3.4,0,.8-.1,1-.5l1.6-.8c.5-.3,4.4-2.7,5.2-3.1,1.8-.6,3.6-1.9,2.5-4-.5-1-1.7-1.4-2.7-1.1-1,.3-1.6,1.3-1.5,2.4-.3.1-.7.1-1.1,0h-.1v.3c0,.2-.1.4-.3.5M160.3,56.2c-1.4.5-2.9.9-4.4,1.4-.5.1-1,.1-1.5,0h-.1c-.2,0-.3,0-.4-.2h-.3c0-.1-.2-.2-.2-.2l-.3.5.2.2h.2c0,.1,0,.3,0,.3h-.2c0,0-.5.2-.5.2-.2,0-.4.1-.7.2l-1.2.5-1.2.5c-.4.2-.9.3-1.5.5l-4.3,1.2c-.2,0-.4,0-.6.1h-.4c0,0-.6.3-.6.3l-1.1.3c-.7.2-1.4.4-2.1.6-.4.1-.8.3-1.3.4-.9.3-1.8.6-2.7,1l-.5.2-2.5,1.1-1.6.7c-.7.3-1.5.5-2.2.7-.6.2-1.2.4-1.7.6-1.1.4-2.2.8-3.4,1.1-.6.2-1.2.5-1.8.6l-1.2.4c-.8.2-1.6.5-2.4.7l-.7.2c-.4.1-.7.2-1.1.3l-1.2.3c-.5.1-.2,0-.6.1-.4.1-.7.2-.6.5,0,.1.2.3.6.3.5,0,.9,0,1.4-.1,1.3-.2,2.4-.6,3.8-.8.5-.1,1.3-.6,1.8-.7l1.5-.3,1.4-.3c.7-.2,1.3-.5,1.9-.7,1-.1,1.9-.4,2.8-.8.8-.4,1.6-.6,2.5-.8l.7-.3h.3c0-.1,1-.6,1-.6.7-.3,1.4-.6,2.1-.8.3,0,.7-.2,1-.3.5-.2,1.1-.3,1.7-.4.2,0,.4,0,.6,0h.1c.7-.2,1.4-.3,2.2-.6.7-.2,1.3-.4,2.1-.5l.9-.2c.9-.2,1.8-.4,2.7-.6.5-.1,1-.3,1.5-.4l.8-.2h.5c.3-.2.5-.3.8-.4.9-.3,1.7-.7,2.6-1h0c.3,0,.6-.3.8-.5.2-.3.4-.3.8-.4h1.2c1.2-.2,2.4-.3,3.6-.5.9-.1,1.8-.3,2.7-.6.7-.2,1.4-.4,2-.7.8-.3,1.7-.5,2.5-.8,1.1-.3,3.6-.8,4.6-1.1l2-.5c.4,0,1-.4.9-.8,0-.2-.1-.5-.3-.6-.3-.2-.5-.6-.4-1,0-.3-.3-.6-.6-.7h-.2c-.5,0-.9,0-1.4,0-.5.2-2.4.5-2.9.6-.9.1-1.7.4-2.6.7-1,.4-2.1.7-3.2,1.1l-1.2.4-1.2.3ZM30.8,57.7c0,.1.2.3.3.4.4.3.9.6,1.4.9.3.2.6.3,1,.4.2,0,.4.1.6.2.3.1.7.3,1,.3h.2c.4.1.7,0,1.1-.1.2-.2.3-.4.4-.6,0-.1-.6.1-1.2-.5-.1-.1-.8-.7-.8-.8,0-.4.3-.7.5-1,.2,0,.4,0,.6.2.6.2,1.2.5,1.6.9.7.7,1.7,1,2.6,1.1,3.2-.1,6.3.7,9.1,2.4.3.4.7.5,1.2.5h0c.7-.5,1.5-.7,2.4-.6l10.4,3c.9.3,1.7.6,2.7.8l23.5,6.8h.2c.2,0,.5-.1.6-.4,0-.2,0-.4,0-.5,0-.2-.2-.3-.4-.3-1.5-.5-6.6-2.2-12.9-4.3-.8-.4-1.6-.7-2.4-1-.7-.2-1.4-.4-2.2-.5-12.3-3.9-19.2-6.2-20-6.5-.8-.3-.7-.4-.7-.5s.3-.3.4-.4c.1,0,.3-.2.3-.4v-.2h-.1c-1.1-.3-2.2-.3-3.3-.2-2.3,0-10.1-1-11.5-3-.3-.4-.7-.8-1.1-1.2-.3-.2-.6-.5-.8-.8-.9-1.2-2.6-1.6-3.1.2-.4,1.4-2.2,1.4-2.5,2.8-.2.6.4,1,.7,1.5.3.5,0,1.1.3,1.5M77.9,7.8c.2,0,.5.2.7.3l.5.2h0c0,.4.1.6.2.9.1.3.3.7.4,1h0c0,.1.7,1.3.7,1.3v.4c.1,0,.2,0,.2,0h0c0,0-.1.2-.1.3,0,.4.2.7.5.9.3.6.5,1.3.6,1.9,0,.4,0,.8.1,1.1,0,.3.2.6.2.9,0,.4.2.9.4,1.3l.2.8c0,.2.1.5.2.7,0,0,0,.5.1,1.8,0,.1,0,.3.2.4l.5.4c.1.1.2.2.3.3,0,.1.2.2.3.3l1.3,3.8c.8,2.5,1.7,5.4,2.6,8.2.3.9.6,1.7.8,2.6.9,2.9,1.9,6,3.1,8.8l5.7,17c.1.3.5.5.8.4h.1c.2-.2.3-.5.3-.8l-4.8-16c-.1-.7-.4-1.5-.6-2.2v-.2c-.1,0-.2-.3-.2-.3,0-.7-.1-1.4-.4-2.1-.3-.8-.7-1.6-1-2.5l-.4-1.2c-.5-2.2-1.2-4.4-1.9-6.6-.2-.6-.4-1.1-.6-1.6l-2.6-8.5c.1,0,.2-.1.3-.2,0-.1,0-.3,0-.4l-.7-2.2c0,0,0-.2-.2-.2l-.4-.4v-.2s0-.5,0-.5l-1-2.4v-.4c.2-.1.2-.3.1-.4v-.4c-.2-.1-.2-.2-.3-.3l-.4-.4-.3-.8-.5-1.8-1.1-2.9c.3-1.1.2-1.2.2-1.3,0-.1,0-.3,0-.4,0-.2,0-.3,0-.5v-.9c0-.2-.1-.4-.3-.5h-.5c0-.1-.5-.3-.5-.3h-.4c0-.1-.2-.1-.3-.1l-.5.2c-.5,0-.8.2-.8.4,0,.1-.2.3-.3.4l-.5.2c-.1,0-.5.3-.6.7,0,.3,0,.7,0,1-.1.3,0,.6.3.8M100.1,12.7c0,.4.5.7.7.8v5.3c.1,0-.5.5-.5.5-.2.2-.3.4-.3.6v.5c0,.8.4,1.7,1,2.3h0v1c0,1.3,0,2.7.2,4v2.4c-.5.7-.7,1.5-.6,2.4.1.4.4.7.7.9v.2c-.2,1.3-.2,2.7,0,4v3.6c-.5.6-.7,1.3-.6,2,0,.5.1,1,.5,1.4,0,.5.1,1,.2,1.5v7.2c-.7,1.1-.6,2.5,0,3.6,0,1.3.2,6.1.2,6.1s0,.6.5.6c.3,0,.6-.3.7-.6,0,0,0,0,0,0,0-1.7.3-5,.2-6,.7-1.1.8-2.4.2-3.6v-.9c0-.5,0-1.1,0-1.6v-1.9c0-.5,0-.9,0-1.4v-1.5c0-.4,0-.9.1-1.3.3-.4.6-.8.6-1.3.2-.8,0-1.7-.6-2.3v-.4c0-.4,0-.7,0-1.1v-6.3c.2-.3.5-.6.5-1,.1-.8-.2-1.7-.7-2.3v-7.3c.7-.8,1-1.8,1-2.9,0-.2-.1-.5-.3-.6l-.6-.5c0-.8,0-1.7,0-2.5v-2.7c.3-.1.8-.4.8-.9,0-.2,0-.8.2-1.7.1-.7-.3-1.4-1-1.6l-.2-3.4c.5-.4.8-1.1.8-1.8,0-.6-.5-1.2-1-1.4l.9-1.5h0c0-.2,0-1.1-.6-1.3-.4-.1-.9-.2-1.3-.2h-.2c-.3,0-.5,0-.8.1h-.2c-.6.2-.6,1.1-.6,1.2h0c0,0,.9,1.6.9,1.6-.6.3-1,.8-1,1.4,0,.7.2,1.4.8,1.8l-.2,3.4c-.6.2-1,.9-.9,1.5.1.9.2,1.5.2,1.7M101.9,70c3,0,5.6,2.3,5.9,5.3,0,.7.1,1.4.1,2.2h70.8v-.7l-2.8-2h-65.3c-.7-4.3-4.4-7.5-8.8-7.5-4.4,0-8.1,3.2-8.8,7.5H27.9l-2.9,2v.7h70.8c0-.7,0-1.4.1-2.2.4-3,2.9-5.3,5.9-5.3h0ZM172.3,133.2c0-6.2-2.9-12.4-8.7-12.4h-7.6v23.8l-1.2,1.2h6.5c5.8,0,11-5.2,11-12.7M178.3,133c.3,8.2-6,15.1-14.2,15.4,0,0,0,0,0,0h-15.3l1.5-1.6v-17.3l-1.8-3.8,1.9.8-2.8-5.5,3,.2-2.5-2.9h17.2c7.7,0,13,5.9,13,14.7M144.5,145.9h-10.9l1.2-1.2v-24.7l1.5-1.6h-8.8l1.5,1.6v26.8l-1.5,1.6h19.1l.6-5.9-2.8,3.4ZM114.8,126.2c0-2.8-2.1-5.1-4.9-5.3h-3.2v11.2h3.2c3.2,0,4.9-3.1,4.9-5.9M116.8,148.4l1.5-1.6-8.5-12.2h-3.2v12.2l1.5,1.6h-8.8l1.5-1.6v-26.8l-1.5-1.6h12.7c4.6,0,9.4,3.7,8.3,9.3h1.5s-2.7,3-2.7,3.1l1,.8-5.8,2.6,1.8.6,8.4,12,1.5,1.6h-9.4ZM95.6,142.5c-3,4.4-8.1,6.9-13.4,6.7-8.8,0-16.4-5.9-16.4-15.7s6.5-15.6,16.4-15.6c3.7,0,7.4,1.1,10.6,3.1-3-1.1-13.2-3.1-18.2,3.6-1.8,2.6-2.8,5.7-2.8,8.9,0,7.9,5.1,13.1,10.3,13.1s8.4-3.2,9.6-9.3c.6-3.4-.2-7-2.4-9.7-1.5-1.8-5-3.6-8-1-1.6,1-2,3.1-1,4.6.6,1,1.8,1.6,2.9,1.5-3.9.8-5.5-2.2-5-4.6.5-2.3,3.1-5.9,3.1-5.9h8.4c0,.1,6.7,6.4,6.7,6.4.4,1,.7,2,1,3.1.7,3.7,0,7.5-1.9,10.7"/>
    </g>
  </g>
</svg>