<?xml version="1.0" encoding="UTF-8"?>
<svg id="Layer_2" xmlns="http://www.w3.org/2000/svg" viewBox="0 0 1128.19 11.76">
  <defs>
    <style>
      .cls-1 {
        fill: #fff;
      }
    </style>
  </defs>
  <g id="Layer_1-2" data-name="Layer_1">
    <g>
      <path class="cls-1" d="M0,.74C.13.49.25.05.39.04,1.43-.02,2.48,0,3.52,0h1124.66v11.66h-5.97c-372.9,0-745.8,0-1118.69-.03-1.17,0-2.35-.46-3.52-.7,18.9-.03,37.8-.07,56.69-.1q9.36-.01,8.23-8.88c-.01-.11-.12-.21-.6-1.03-2.39,0-5.21,0-8.03,0-18.76-.06-37.53-.13-56.29-.2ZM120.56,10.63h44.93c0-2.01-.22-3.83.05-5.59.48-3.21-.8-4.21-4.25-4.16-10.82.17-21.65.05-32.48.06q-9.69,0-8.6,9.06c.01.11.11.21.35.64ZM241.87,10.84c0-2.13-.2-3.83.04-5.46.53-3.57-1.08-4.61-4.78-4.51-7.8.21-15.61.05-23.41.06-9.63.01-6.69.16-7.05,7.6-.04.73,1.65,2.19,2.55,2.21,10.65.16,21.31.1,32.65.1ZM275.07,10.58h27.62c.1-1.79.06-3.36.29-4.89.54-3.6-.86-5.06-4.92-4.83-4.94.28-9.9.07-14.86.07-9.71,0-9.79.08-8.41,9.16.02.11.11.21.28.5ZM330.73,10.59h23.28c0-2.4-.13-4.57.04-6.72.18-2.29-.95-2.98-3.18-2.94-3.89.06-7.79,0-11.68,0q-9.73,0-8.45,9.66ZM377.78,1.05v9.57h20.09c0-2.73.13-5.25-.09-7.74-.06-.65-1.18-1.74-1.83-1.75-6.06-.14-12.12-.08-18.18-.08ZM436.61,10.66c0-2.7.13-5.12-.08-7.51-.06-.73-1-1.97-1.58-1.98-5.49-.15-10.99-.09-16.35-.09v9.58h18ZM454.98,10.84c3.36,0,5.84,0,8.31,0s4.95,0,7.35,0c.59-11.92,1.09-9.61-8.56-9.9-1.43-.04-3.01-.31-4.26.15-1.13.41-2.52,1.57-2.71,2.58-.41,2.2-.13,4.51-.13,7.18ZM501.76,10.66V1.05c-4.17,0-8.19-.1-12.18.09-.81.04-2.16,1.13-2.24,1.83-.28,2.48-.11,5.01-.11,7.69h14.53ZM529.89.94c-2.3,0-4.23,0-6.16,0-7.62,0-8.64,1.12-6.99,7.99.17.72,1.17,1.77,1.83,1.8,3.72.17,7.45.08,11.31.08V.94ZM579.22,10.83c2.28-8.71.4-10.81-8.16-9.86-2.23.25-3.27,1.08-3.05,3.25.14,1.44-.26,2.97.15,4.31.27.9,1.46,2.11,2.34,2.2,2.92.28,5.89.1,8.73.1ZM555.66,10.7c-.29-3.39.58-8.06-1.06-9.01-2.44-1.42-7.5-1.33-9.8.23-1.67,1.13-.67,5.67-.86,8.78h11.73ZM591.48,10.58h10.1V1.36h-10.1v9.22ZM613.24,1.47v9.18h8.65c1.12-10.28,1.6-10.46-8.65-9.18ZM633.1,10.52c8.92.85,8.72.84,9-5.4.14-3.2-1-4.12-4.31-4.26-3.81-.16-5.19,1.08-4.73,4.53.22,1.64.04,3.32.04,5.13ZM659.98,10.66c0-2.66.38-5.23-.19-7.59-.23-.94-2.5-1.81-3.97-2.02-1.56-.23-3.94-.69-4.04,1.99-.09,2.49-.02,4.99-.02,7.63h8.21ZM693.52,10.66V1.23c-1.72-.09-3.3-.44-4.74-.16-.96.18-2.38,1.18-2.47,1.93-.31,2.47-.12,4.99-.12,7.66h7.33ZM677.37,10.73c-.25-3.24.1-6.39-1-9-.39-.92-4.35-.52-6.61-.72v9.72h7.62ZM709.21,10.65V1.28c-1.65-.1-3.23-.45-4.68-.19-.98.17-2.44,1.12-2.54,1.85-.32,2.48-.12,5.01-.12,7.71h7.34ZM731.89,1.59v9.02h6.03c0-1.77,0-3.31,0-4.86.03-5.27-.32-5.52-6.04-4.17ZM745.74,1.25v9.4h5.73V1.25h-5.73ZM717.45,10.66h6.02V1.37h-6.02v9.29ZM789.09,10.73c0-2.83.19-5.37-.12-7.85-.09-.71-1.67-1.76-2.55-1.74-.97.02-2.71,1.05-2.75,1.7-.14,2.59.26,5.21.46,7.9h4.96ZM806.99,1.71v8.86h4.85c0-2.05,0-3.83,0-5.62,0-4.14-.56-4.5-4.85-3.24ZM764.4,10.66c0-2.84.24-5.3-.14-7.67-.12-.78-1.79-1.71-2.87-1.87-.74-.11-2.43.95-2.44,1.51-.06,2.62.31,5.25.54,8.03h4.9ZM799.83,10.86c.3-.74.53-1.06.55-1.39.08-1.56.11-3.12.13-4.69.05-4-.27-4.22-4.81-3.16v9.04c1.45.07,2.69.13,4.13.2ZM776.91,10.72c0-2.88.2-5.41-.13-7.88-.09-.68-1.68-1.58-2.65-1.66-.71-.06-2.13,1.02-2.2,1.67-.26,2.58-.11,5.19-.11,7.87h5.08ZM817.87,1.68v8.75c3.7,1.21,4.84-.18,4.56-3.21-.08-.84,0-1.7,0-2.54.04-3.84-.24-4.03-4.57-2.99ZM832.92,10.51c0-2.07-.11-4.1.02-6.1.23-3.36-1.34-4.02-4.38-2.85v9.11c1,.07,1.75.16,2.5.15.48,0,.96-.15,1.86-.31ZM838.61,10.43c4.54,1.18,4.87.58,4.24-8.71-2.82-1.25-4.4-.78-4.26,2.5.09,2.03.02,4.06.02,6.21ZM861.92,10.65V1.35h-3.77c-1.06,8.47-.72,9.38,3.77,9.3ZM871.22,11.25V1.06c-1.45.25-3.6.36-3.62.66-.26,2.71-.31,5.47-.02,8.18.05.47,1.99.76,3.64,1.34ZM876.4,10.44c2.8.9,3.87.07,3.88-2.18,0-1.68.28-3.39.02-5.02-.12-.77-1.22-1.41-1.87-2.11-.68.66-1.86,1.28-1.94,1.99-.25,2.36-.09,4.76-.09,7.32ZM893.58,10.26c.43.32.86.65,1.29.97.82-.91,2.11-1.72,2.37-2.75.44-1.73.44-3.64.18-5.41-.11-.73-1.37-1.31-2.11-1.95-.58.64-1.59,1.24-1.65,1.92-.2,2.4-.08,4.82-.08,7.23ZM852.8,10.63c0-2.68.15-5.19-.1-7.67-.07-.68-1.39-1.75-2.1-1.72-.73.03-1.95,1.12-2.03,1.83-.25,2.47-.1,4.97-.1,7.56h4.33ZM905.59,10.97V1.1c-1.41.31-3.49.51-3.5.81-.16,2.72-.07,5.47.26,8.18.04.35,1.85.52,3.24.88ZM935.65,11.76c.28-3.84.56-6.35.59-8.85,0-.58-.88-1.16-1.35-1.74-.7.52-1.95.98-2.01,1.56-.23,2.15-.23,4.36.05,6.51.09.69,1.29,1.25,2.73,2.53ZM888.76.15c-1.76,1.28-3.3,1.83-3.41,2.57-.3,2.13-.18,4.35.1,6.49.08.6,1.27,1.07,1.95,1.6.45-.59,1.26-1.16,1.3-1.77.15-2.5.06-5.02.06-8.88ZM940.44,10.24c.31.29.62.59.93.88.7-.6,1.93-1.15,2.02-1.81.26-2.13.21-4.31.04-6.45-.05-.59-.91-1.12-1.4-1.68-.53.63-1.46,1.24-1.51,1.91-.19,2.38-.07,4.77-.07,7.16ZM930.03,5.91c-.91-1.73-1.84-4.54-2.44-4.48-3.33.32-1.41,2.98-1.49,4.54-.08,1.57.94,3.2,1.49,4.8.76-1.51,1.52-3.02,2.45-4.86ZM913.64,1.83c-.36-.32-.72-.64-1.08-.96-.76.77-2.01,1.46-2.17,2.33-.33,1.76-.24,3.64.04,5.43.12.78,1.13,1.44,1.74,2.15.49-.68,1.34-1.34,1.4-2.06.18-2.29.07-4.59.07-6.89ZM958.22,6.17c-.74-1.75-1.76-4.8-2.04-4.74-3.22.67-1.39,3.22-1.51,4.92-.1,1.44.92,2.95,1.45,4.43.66-1.46,1.33-2.91,2.1-4.62ZM974.85,11.67c1.45-1.17,2.65-1.67,2.72-2.28.25-2.16.21-4.36.04-6.53-.05-.58-.95-1.11-1.45-1.66-.43.6-1.21,1.19-1.24,1.81-.14,2.52-.06,5.04-.06,8.66ZM981.12,10.94c1.2-.28,2.49-.41,2.5-.61.19-2.76.24-5.53.18-8.29,0-.29-1.15-.89-1.44-.75-.54.25-1.16.93-1.19,1.46-.12,2.52-.05,5.06-.05,8.2ZM993.63,10.49c.34.19.68.37,1.02.56.61-.65,1.65-1.25,1.73-1.95.24-2.03.19-4.11.02-6.15-.05-.6-.9-1.15-1.39-1.72-.46.57-1.28,1.12-1.32,1.72-.15,2.51-.06,5.03-.06,7.55ZM948.27,10.66c2.74-.43,3.7-3.08,2.75-7.76-.15-.73-1.42-1.27-2.75-2.38v10.14ZM969.8.94l-1.08.53v10.08c4.26-2.38,2.12-5.69,2.59-8.18.13-.7-.97-1.61-1.51-2.42ZM921.46,1.7c-2.03-.88-3.25-.67-3.22,1.69.02,1.8-.13,3.61.09,5.38.09.71.94,1.35,1.45,2.02.56-.73,1.54-1.42,1.61-2.19.22-2.25.08-4.54.08-6.9ZM990.94,6.16c-.76-1.72-1.46-3.31-2.16-4.9-.46,1.65-1.28,3.3-1.29,4.95,0,1.52.85,3.05,1.32,4.57.67-1.45,1.33-2.9,2.12-4.62ZM1016.56,5.9c.64,1.62,1.28,3.24,1.92,4.85.45-1.67,1.27-3.34,1.24-5-.02-1.5-.96-2.98-1.49-4.47-.52,1.44-1.04,2.89-1.67,4.62ZM1114.13,10.61c2.93-2.36,1.83-5.3,1.86-8.02,0-.38-1.14-.76-1.86-1.22v9.23ZM1099.75,6.15c-.72-1.71-1.33-3.19-1.95-4.67-.43,1.55-1.18,3.1-1.21,4.66-.03,1.49.7,2.99,1.1,4.48.67-1.44,1.33-2.89,2.06-4.48ZM963.83,11.57V1.19c-2.92,1.2-3.16,6.75,0,10.38ZM999.84,10.76c.97-.05,1.68-.05,1.69-.1.29-2.92.54-5.85.69-8.78,0-.18-.93-.65-1.22-.53-.48.2-1.09.75-1.11,1.17-.1,2.73-.05,5.46-.05,8.25ZM1006.39.95v10.2c2.53-2.66,2.55-7.82,0-10.2ZM1012.18,10.55c.35.05.7.1,1.05.14V1.43c-.35,0-.7,0-1.05,0v9.11ZM1030.3,1.26c-2.93,1.66-2.82,7.97,0,9.42V1.26ZM1041.52,11.62c0-3.61.06-6.31-.06-8.99-.02-.45-.87-.87-1.34-1.3-.38.4-1.07.8-1.08,1.21-.06,2.4-.03,4.81.16,7.2.03.43.93.79,2.32,1.89ZM1050.99,1.48c-.33.02-.66.04-.99.06v9.12c.33,0,.66,0,.99,0V1.48ZM1061.47,1.24c-2.64,1.76-2.67,7.34,0,9.72V1.24ZM1055.42,10.92l1.56-.33c0-2.23.11-4.47-.06-6.7-.07-.87-.76-1.69-1.17-2.53-.46.82-1.21,1.61-1.31,2.46-.2,1.65-.13,3.35.02,5.01.07.71.62,1.39.96,2.08ZM1023.35,10.94c2.53-2.61,2.45-8.19,0-9.48v9.48ZM1093.27,10.59c.3,0,.6,0,.9,0V1.37c-.3,0-.6,0-.9,0v9.22ZM1119.29,1.49c-.22,0-.43,0-.65.01v9.13c.22,0,.43,0,.65-.01V1.49ZM1079.4,10.54c.24,0,.48.01.72.02V1.57c-.24.01-.48.02-.72.03v8.94ZM1084.09,10.55c.22,0,.45,0,.67.01V1.57c-.22.01-.45.02-.67.04v8.94ZM1089.59,1.58c-.26,0-.52,0-.78,0v9.03c.26,0,.52,0,.78,0V1.58ZM1074.8,10.55c.25.01.5.02.75.03V1.56c-.25,0-.5,0-.75,0v8.99ZM1101.44,10.57c.27,0,.54,0,.82,0V1.53c-.27,0-.54,0-.82,0v9.03ZM1106,10.58c.23,0,.47,0,.7,0V1.54c-.23,0-.47.02-.7.03v9.01ZM1111.44,1.53c-.26.01-.51.02-.77.03v9.04c.26,0,.51,0,.77,0V1.53ZM1070.83,1.55c-.22,0-.44.01-.65.02v9.05c.22,0,.44-.01.65-.02V1.55ZM1065.27,10.56c.29.01.57.02.86.03V1.54c-.29,0-.57,0-.86,0v9.02ZM1045.91,1.61c-.23,0-.47,0-.7.01v8.88c.23,0,.47,0,.7-.01V1.61ZM1035.47,1.58c-.32,0-.64-.02-.96-.03v9.03c.32,0,.64,0,.96-.01V1.58ZM1123.07,10.48c.25,0,.5-.01.75-.02V1.66c-.25,0-.5,0-.75.01v8.81ZM1127.03,1.93c-.19,0-.37,0-.56,0v8.18l.56-.02V1.93Z"/>
      <path d="M0,.74c18.76.07,37.53.13,56.29.2,2.82,0,5.65,0,8.03,0,.48.81.58.92.6,1.03q1.13,8.88-8.23,8.88c-18.9.02-37.8.07-56.69.1V.74Z"/>
      <path d="M120.56,10.63c-.24-.43-.34-.53-.35-.64q-1.09-9.05,8.6-9.06c10.83,0,21.65.11,32.48-.06,3.45-.05,4.74.94,4.25,4.16-.27,1.76-.05,3.59-.05,5.59h-44.93Z"/>
      <path d="M241.87,10.84c-11.34,0-22,.06-32.65-.1-.9-.01-2.59-1.47-2.55-2.21.36-7.44-2.57-7.59,7.05-7.6,7.8-.01,15.61.15,23.41-.06,3.7-.1,5.31.94,4.78,4.51-.24,1.64-.04,3.33-.04,5.46Z"/>
      <path d="M275.07,10.58c-.17-.29-.26-.39-.28-.5-1.37-9.07-1.3-9.15,8.41-9.16,4.95,0,9.92.21,14.86-.07,4.06-.23,5.46,1.23,4.92,4.83-.23,1.53-.19,3.1-.29,4.89h-27.62Z"/>
      <path d="M330.73,10.59q-1.28-9.66,8.45-9.66c3.89,0,7.79.05,11.68,0,2.23-.03,3.37.66,3.18,2.94-.17,2.15-.04,4.32-.04,6.72h-23.28Z"/>
      <path d="M377.78,1.05c6.05,0,12.12-.06,18.18.08.65.01,1.77,1.1,1.83,1.75.22,2.49.09,5.01.09,7.74h-20.09V1.05Z"/>
      <path d="M436.61,10.66h-18V1.08c5.36,0,10.86-.06,16.35.09.57.02,1.51,1.26,1.58,1.98.2,2.39.08,4.8.08,7.51Z"/>
      <path d="M454.98,10.84c0-2.66-.28-4.98.13-7.18.19-1.01,1.58-2.16,2.71-2.58,1.25-.46,2.83-.19,4.26-.15,9.65.29,9.15-2.02,8.56,9.9-2.4,0-4.87,0-7.35,0s-4.94,0-8.31,0Z"/>
      <path d="M501.76,10.66h-14.53c0-2.68-.17-5.2.11-7.69.08-.7,1.43-1.79,2.24-1.83,4-.19,8.01-.09,12.18-.09v9.61Z"/>
      <path d="M529.89.94v9.87c-3.86,0-7.59.09-11.31-.08-.66-.03-1.66-1.08-1.83-1.8-1.65-6.87-.63-7.98,6.99-7.99,1.93,0,3.86,0,6.16,0Z"/>
      <path d="M579.22,10.83c-2.84,0-5.81.17-8.73-.1-.89-.08-2.07-1.3-2.34-2.2-.4-1.34,0-2.88-.15-4.31-.22-2.16.83-3,3.05-3.25,8.57-.95,10.44,1.16,8.16,9.86Z"/>
      <path d="M555.66,10.7h-11.73c.2-3.11-.8-7.65.86-8.78,2.3-1.56,7.36-1.65,9.8-.23,1.63.95.77,5.62,1.06,9.01Z"/>
      <path d="M591.48,10.58V1.36h10.1v9.22h-10.1Z"/>
      <path d="M613.24,1.47c10.25-1.28,9.78-1.1,8.65,9.18h-8.65V1.47Z"/>
      <path d="M633.1,10.52c0-1.81.18-3.49-.04-5.13-.46-3.46.93-4.69,4.73-4.53,3.31.14,4.45,1.06,4.31,4.26-.28,6.24-.08,6.25-9,5.4Z"/>
      <path d="M659.98,10.66h-8.21c0-2.64-.07-5.14.02-7.63.1-2.68,2.48-2.22,4.04-1.99,1.46.22,3.74,1.09,3.97,2.02.57,2.37.19,4.93.19,7.59Z"/>
      <path d="M693.52,10.66h-7.33c0-2.67-.2-5.2.12-7.66.1-.75,1.51-1.75,2.47-1.93,1.44-.27,3.02.07,4.74.16v9.43Z"/>
      <path d="M677.37,10.73h-7.62V1.01c2.26.2,6.23-.2,6.61.72,1.11,2.61.76,5.76,1,9Z"/>
      <path d="M709.21,10.65h-7.34c0-2.7-.2-5.23.12-7.71.09-.73,1.56-1.68,2.54-1.85,1.45-.26,3.03.09,4.68.19v9.37Z"/>
      <path d="M731.89,1.59c5.71-1.35,6.06-1.1,6.04,4.17,0,1.54,0,3.09,0,4.86h-6.03V1.59Z"/>
      <path d="M745.74,1.25h5.73v9.4h-5.73V1.25Z"/>
      <path d="M717.45,10.66V1.37h6.02v9.29h-6.02Z"/>
      <path d="M789.09,10.73h-4.96c-.2-2.69-.6-5.31-.46-7.9.04-.65,1.77-1.68,2.75-1.7.88-.02,2.46,1.03,2.55,1.74.32,2.48.12,5.02.12,7.85Z"/>
      <path d="M806.99,1.71c4.28-1.26,4.84-.9,4.85,3.24,0,1.78,0,3.57,0,5.62h-4.85V1.71Z"/>
      <path d="M764.4,10.66h-4.9c-.23-2.78-.61-5.41-.54-8.03.01-.56,1.69-1.63,2.44-1.51,1.08.17,2.75,1.09,2.87,1.87.38,2.37.14,4.82.14,7.67Z"/>
      <path d="M799.83,10.86c-1.43-.07-2.68-.13-4.13-.2V1.62c4.54-1.05,4.86-.84,4.81,3.16-.02,1.56-.05,3.13-.13,4.69-.02.33-.25.65-.55,1.39Z"/>
      <path d="M776.91,10.72h-5.08c0-2.68-.15-5.29.11-7.87.07-.66,1.48-1.73,2.2-1.67.97.08,2.56.97,2.65,1.66.32,2.47.13,5,.13,7.88Z"/>
      <path d="M817.87,1.68c4.32-1.04,4.61-.85,4.57,2.99,0,.85-.08,1.7,0,2.54.28,3.03-.86,4.42-4.56,3.21V1.68Z"/>
      <path d="M832.92,10.51c-.9.16-1.38.31-1.86.31-.75,0-1.5-.09-2.5-.15V1.55c3.05-1.17,4.61-.51,4.38,2.85-.14,2.01-.02,4.03-.02,6.1Z"/>
      <path d="M838.61,10.43c0-2.15.07-4.18-.02-6.21-.14-3.28,1.44-3.76,4.26-2.5.62,9.29.29,9.89-4.24,8.71Z"/>
      <path d="M861.92,10.65c-4.49.08-4.83-.83-3.77-9.3h3.77v9.3Z"/>
      <path d="M871.22,11.25c-1.65-.58-3.59-.87-3.64-1.34-.29-2.71-.25-5.47.02-8.18.03-.3,2.18-.41,3.62-.66v10.18Z"/>
      <path d="M876.4,10.44c0-2.55-.15-4.95.09-7.32.08-.72,1.26-1.33,1.94-1.99.65.7,1.75,1.34,1.87,2.11.26,1.64-.02,3.34-.02,5.02,0,2.24-1.08,3.08-3.88,2.18Z"/>
      <path d="M893.58,10.26c0-2.41-.12-4.83.08-7.23.06-.68,1.07-1.28,1.65-1.92.74.65,2,1.22,2.11,1.95.26,1.78.26,3.68-.18,5.41-.26,1.03-1.54,1.84-2.37,2.75-.43-.32-.86-.65-1.29-.97Z"/>
      <path d="M852.8,10.63h-4.33c0-2.59-.15-5.09.1-7.56.07-.71,1.3-1.8,2.03-1.83.71-.03,2.03,1.04,2.1,1.72.26,2.47.1,4.99.1,7.67Z"/>
      <path d="M905.59,10.97c-1.39-.36-3.2-.52-3.24-.88-.33-2.71-.43-5.46-.26-8.18.02-.31,2.1-.5,3.5-.81v9.87Z"/>
      <path d="M935.65,11.76c-1.44-1.28-2.64-1.84-2.73-2.53-.27-2.15-.27-4.35-.05-6.51.06-.57,1.31-1.04,2.01-1.56.47.58,1.35,1.16,1.35,1.74-.02,2.51-.3,5.01-.59,8.85Z"/>
      <path d="M888.76.15c0,3.86.09,6.38-.06,8.88-.04.61-.84,1.18-1.3,1.77-.68-.53-1.87-1-1.95-1.6-.28-2.15-.41-4.36-.1-6.49.11-.73,1.64-1.29,3.41-2.57Z"/>
      <path d="M940.44,10.24c0-2.39-.11-4.78.07-7.16.05-.67.98-1.27,1.51-1.91.49.56,1.35,1.09,1.4,1.68.17,2.15.23,4.33-.04,6.45-.08.67-1.31,1.21-2.02,1.81-.31-.29-.62-.59-.93-.88Z"/>
      <path d="M930.03,5.91c-.93,1.84-1.69,3.35-2.45,4.86-.54-1.6-1.57-3.23-1.49-4.8.08-1.56-1.85-4.22,1.49-4.54.61-.06,1.54,2.75,2.44,4.48Z"/>
      <path d="M913.64,1.83c0,2.3.11,4.6-.07,6.89-.06.71-.91,1.37-1.4,2.06-.61-.71-1.62-1.37-1.74-2.15-.28-1.78-.37-3.66-.04-5.43.16-.87,1.41-1.56,2.17-2.33.36.32.72.64,1.08.96Z"/>
      <path d="M958.22,6.17c-.78,1.71-1.44,3.16-2.1,4.62-.53-1.48-1.55-2.99-1.45-4.43.11-1.71-1.71-4.25,1.51-4.92.28-.06,1.31,2.99,2.04,4.74Z"/>
      <path d="M974.85,11.67c0-3.62-.08-6.14.06-8.66.04-.62.81-1.2,1.24-1.81.51.55,1.41,1.08,1.45,1.66.17,2.17.21,4.37-.04,6.53-.07.61-1.27,1.11-2.72,2.28Z"/>
      <path d="M981.12,10.94c0-3.14-.07-5.68.05-8.2.03-.52.65-1.21,1.19-1.46.3-.14,1.44.47,1.44.75.06,2.76,0,5.53-.18,8.29-.01.2-1.3.33-2.5.61Z"/>
      <path d="M993.63,10.49c0-2.52-.09-5.04.06-7.55.04-.59.86-1.15,1.32-1.72.48.57,1.33,1.12,1.39,1.72.17,2.04.22,4.12-.02,6.15-.08.7-1.13,1.31-1.73,1.95-.34-.19-.68-.37-1.02-.56Z"/>
      <path d="M948.27,10.66V.51c1.33,1.11,2.6,1.65,2.75,2.38.95,4.68-.01,7.33-2.75,7.76Z"/>
      <path d="M969.8.94c.54.81,1.64,1.71,1.51,2.42-.46,2.5,1.67,5.81-2.59,8.18V1.46l1.08-.53Z"/>
      <path d="M921.46,1.7c0,2.36.14,4.64-.08,6.9-.07.77-1.05,1.46-1.61,2.19-.51-.67-1.36-1.3-1.45-2.02-.21-1.77-.06-3.58-.09-5.38-.03-2.36,1.19-2.57,3.22-1.69Z"/>
      <path d="M990.94,6.16c-.79,1.72-1.46,3.17-2.12,4.62-.48-1.52-1.33-3.05-1.32-4.57,0-1.65.83-3.3,1.29-4.95.7,1.59,1.4,3.18,2.16,4.9Z"/>
      <path d="M1016.56,5.9c.63-1.74,1.15-3.18,1.67-4.62.53,1.49,1.47,2.98,1.49,4.47.02,1.66-.79,3.33-1.24,5-.64-1.61-1.28-3.23-1.92-4.85Z"/>
      <path d="M1114.13,10.61V1.38c.72.45,1.87.84,1.86,1.22-.03,2.72,1.07,5.66-1.86,8.02Z"/>
      <path d="M1099.75,6.15c-.73,1.59-1.4,3.04-2.06,4.48-.4-1.49-1.12-2.99-1.1-4.48.03-1.56.78-3.11,1.21-4.66.62,1.48,1.23,2.95,1.95,4.67Z"/>
      <path d="M963.83,11.57c-3.16-3.62-2.92-9.18,0-10.38v10.38Z"/>
      <path d="M999.84,10.76c0-2.79-.05-5.52.05-8.25.02-.42.63-.97,1.11-1.17.29-.12,1.23.36,1.22.53-.15,2.93-.4,5.86-.69,8.78,0,.05-.72.05-1.69.1Z"/>
      <path d="M1006.39.95c2.55,2.38,2.53,7.54,0,10.2V.95Z"/>
      <path d="M1012.18,10.55V1.44c.35,0,.7,0,1.05,0v9.26c-.35-.05-.7-.1-1.05-.14Z"/>
      <path d="M1030.3,1.26v9.42c-2.82-1.45-2.93-7.76,0-9.42Z"/>
      <path d="M1041.52,11.62c-1.39-1.09-2.29-1.46-2.32-1.89-.19-2.39-.22-4.8-.16-7.2,0-.41.7-.81,1.08-1.21.47.43,1.32.85,1.34,1.3.13,2.69.06,5.38.06,8.99Z"/>
      <path d="M1050.99,1.48v9.18c-.33,0-.66,0-.99,0V1.55c.33-.02.66-.04.99-.06Z"/>
      <path d="M1061.47,1.24v9.72c-2.67-2.37-2.64-7.96,0-9.72Z"/>
      <path d="M1055.42,10.92c-.33-.69-.89-1.37-.96-2.08-.15-1.66-.22-3.36-.02-5.01.1-.86.85-1.64,1.31-2.46.41.84,1.1,1.67,1.17,2.53.17,2.22.06,4.46.06,6.7l-1.56.33Z"/>
      <path d="M1023.35,10.94V1.46c2.45,1.29,2.53,6.87,0,9.48Z"/>
      <path d="M1093.27,10.59V1.37c.3,0,.6,0,.9,0v9.22c-.3,0-.6,0-.9,0Z"/>
      <path d="M1119.29,1.49v9.13c-.22,0-.43,0-.65.01V1.5c.22,0,.43,0,.65-.01Z"/>
      <path d="M1079.4,10.54V1.61c.24-.01.48-.02.72-.03v8.99c-.24,0-.48-.01-.72-.02Z"/>
      <path d="M1084.09,10.55V1.61c.22-.01.45-.02.67-.04v8.99c-.22,0-.45,0-.67-.01Z"/>
      <path d="M1089.59,1.58v9.02c-.26,0-.52,0-.78,0V1.57c.26,0,.52,0,.78,0Z"/>
      <path d="M1074.8,10.55V1.56c.25,0,.5,0,.75,0v9.02c-.25-.01-.5-.02-.75-.03Z"/>
      <path d="M1101.44,10.57V1.54c.27,0,.54,0,.82,0v9.04c-.27,0-.54,0-.82,0Z"/>
      <path d="M1106,10.58V1.57c.23,0,.47-.02.7-.03v9.04c-.23,0-.47,0-.7,0Z"/>
      <path d="M1111.44,1.53v9.06c-.26,0-.51,0-.77,0V1.56c.26-.01.51-.02.77-.03Z"/>
      <path d="M1070.83,1.55v9.05c-.22,0-.44.01-.65.02V1.57c.22,0,.44-.01.65-.02Z"/>
      <path d="M1065.27,10.56V1.53c.29,0,.57,0,.86,0v9.05c-.29-.01-.57-.02-.86-.03Z"/>
      <path d="M1045.91,1.61v8.88c-.23,0-.47,0-.7.01V1.62c.23,0,.47,0,.7-.01Z"/>
      <path d="M1035.47,1.58v8.99c-.32,0-.64,0-.96.01V1.55c.32,0,.64.02.96.03Z"/>
      <path d="M1123.07,10.48V1.67c.25,0,.5,0,.75-.01v8.81c-.25,0-.5.01-.75.02Z"/>
      <path d="M1127.03,1.93v8.17l-.56.02V1.94c.19,0,.37,0,.56,0Z"/>
    </g>
  </g>
</svg>